ISO-10303-21;
HEADER;
FILE_DESCRIPTION (( 'STEP AP214' ),
    '1' );
FILE_NAME ('1.8RD.STEP',
    '2025-11-22T15:21:33',
    ( '' ),
    ( '' ),
    'SwSTEP 2.0',
    'SolidWorks 2023',
    '' );
FILE_SCHEMA (( 'AUTOMOTIVE_DESIGN' ));
ENDSEC;

DATA;
#1 = SURFACE_STYLE_FILL_AREA ( #664 ) ;
#2 = CARTESIAN_POINT ( 'NONE',  ( -1.059000000000000163, -0.06000000000000001860, -0.01000000000000000194 ) ) ;
#3 = ORIENTED_EDGE ( 'NONE', *, *, #284, .F. ) ;
#4 = CARTESIAN_POINT ( 'NONE',  ( 0.06300000000000002820, -0.04774934600000001195, -0.04700000000000001399 ) ) ;
#5 = FACE_BOUND ( 'NONE', #254, .T. ) ;
#6 = EDGE_CURVE ( 'NONE', #21, #933, #281, .T. ) ;
#7 = EDGE_CURVE ( 'NONE', #824, #524, #38, .T. ) ;
#8 = SURFACE_STYLE_USAGE ( .BOTH. , #263 ) ;
#9 = ORIENTED_EDGE ( 'NONE', *, *, #753, .F. ) ;
#10 = FILL_AREA_STYLE ('',( #108 ) ) ;
#11 = CARTESIAN_POINT ( 'NONE',  ( 0.06300000000000002820, -0.06777550400000002806, 0.04700000000000001399 ) ) ;
#12 = SURFACE_SIDE_STYLE ('',( #1 ) ) ;
#13 = MECHANICAL_DESIGN_GEOMETRIC_PRESENTATION_REPRESENTATION (  '', ( #991 ), #452 ) ;
#14 = VERTEX_POINT ( 'NONE', #51 ) ;
#15 = PRESENTATION_STYLE_ASSIGNMENT (( #421 ) ) ;
#16 = STYLED_ITEM ( 'NONE', ( #945 ), #488 ) ;
#17 =( LENGTH_UNIT ( ) NAMED_UNIT ( * ) SI_UNIT ( $, .METRE. ) );
#18 = MECHANICAL_DESIGN_GEOMETRIC_PRESENTATION_REPRESENTATION (  '', ( #690 ), #371 ) ;
#19 = VECTOR ( 'NONE', #478, 39.37007874015748143 ) ;
#20 =( NAMED_UNIT ( * ) PLANE_ANGLE_UNIT ( ) SI_UNIT ( $, .RADIAN. ) );
#21 = VERTEX_POINT ( 'NONE', #363 ) ;
#22 = DIRECTION ( 'NONE',  ( -0.000000000000000000, 0.000000000000000000, -1.000000000000000000 ) ) ;
#23 = DIRECTION ( 'NONE',  ( 1.274182832865793926E-16, -1.000000000000000000, 0.000000000000000000 ) ) ;
#24 = PRESENTATION_STYLE_ASSIGNMENT (( #8 ) ) ;
#25 = VERTEX_POINT ( 'NONE', #533 ) ;
#26 = LINE ( 'NONE', #583, #1046 ) ;
#27 = EDGE_CURVE ( 'NONE', #984, #448, #359, .T. ) ;
#28 = CARTESIAN_POINT ( 'NONE',  ( -0.01999999988291674760, -0.02000000001479591838, 0.01000000000000000194 ) ) ;
#29 = DIRECTION ( 'NONE',  ( -1.000000000000000000, -2.404795769070653637E-16, -0.000000000000000000 ) ) ;
#30 = VECTOR ( 'NONE', #445, 39.37007874015748143 ) ;
#31 = EDGE_LOOP ( 'NONE', ( #309, #161, #944, #150 ) ) ;
#32 = DIRECTION ( 'NONE',  ( 0.000000000000000000, 6.011989422676633650E-15, -1.000000000000000000 ) ) ;
#33 = DIRECTION ( 'NONE',  ( 0.000000000000000000, -5.335640612625513020E-17, 1.000000000000000000 ) ) ;
#34 = EDGE_CURVE ( 'NONE', #840, #1020, #596, .T. ) ;
#35 = CIRCLE ( 'NONE', #169, 0.02000000000000000389 ) ;
#36 =( GEOMETRIC_REPRESENTATION_CONTEXT ( 3 ) GLOBAL_UNCERTAINTY_ASSIGNED_CONTEXT ( ( #737 ) ) GLOBAL_UNIT_ASSIGNED_CONTEXT ( ( #891, #339, #253 ) ) REPRESENTATION_CONTEXT ( 'NONE', 'WORKASPACE' ) );
#37 = FACE_OUTER_BOUND ( 'NONE', #764, .T. ) ;
#38 = LINE ( 'NONE', #771, #350 ) ;
#39 =( LENGTH_UNIT ( ) NAMED_UNIT ( * ) SI_UNIT ( $, .METRE. ) );
#40 = EDGE_CURVE ( 'NONE', #984, #202, #676, .T. ) ;
#41 = EDGE_CURVE ( 'NONE', #852, #154, #920, .T. ) ;
#42 = DIRECTION ( 'NONE',  ( -0.000000000000000000, -0.000000000000000000, 1.000000000000000000 ) ) ;
#43 = DIRECTION ( 'NONE',  ( 0.000000000000000000, -0.000000000000000000, -1.000000000000000000 ) ) ;
#44 = CARTESIAN_POINT ( 'NONE',  ( -1.018000000000000238, 0.06000000000000001860, -0.01000000000000000194 ) ) ;
#45 = ORIENTED_EDGE ( 'NONE', *, *, #752, .T. ) ;
#46 =( NAMED_UNIT ( * ) SI_UNIT ( $, .STERADIAN. ) SOLID_ANGLE_UNIT ( ) );
#47 = VECTOR ( 'NONE', #1023, 39.37007874015748143 ) ;
#48 = LENGTH_MEASURE_WITH_UNIT ( LENGTH_MEASURE( 0.02539999999999999897 ), #611 );
#49 = AXIS2_PLACEMENT_3D ( 'NONE', #447, #765, #1012 ) ;
#50 = AXIS2_PLACEMENT_3D ( 'NONE', #206, #937, #132 ) ;
#51 = CARTESIAN_POINT ( 'NONE',  ( -0.02000000000102550302, 0.06000000000000001166, 0.01000000000000000888 ) ) ;
#52 = LENGTH_MEASURE_WITH_UNIT ( LENGTH_MEASURE( 0.02539999999999999897 ), #934 );
#53 = EDGE_CURVE ( 'NONE', #136, #560, #116, .T. ) ;
#54 = ORIENTED_EDGE ( 'NONE', *, *, #183, .T. ) ;
#55 = CARTESIAN_POINT ( 'NONE',  ( -1.018000000000000238, 0.06000000000000001860, -0.01000000000000000194 ) ) ;
#56 = DIRECTION ( 'NONE',  ( -1.000000000000000000, 0.000000000000000000, 0.000000000000000000 ) ) ;
#57 = SURFACE_STYLE_FILL_AREA ( #553 ) ;
#58 = CARTESIAN_POINT ( 'NONE',  ( 0.06300000000000002820, 0.06225065400000002330, 0.04700000000000001399 ) ) ;
#59 = ORIENTED_EDGE ( 'NONE', *, *, #347, .T. ) ;
#60 = DIRECTION ( 'NONE',  ( 0.000000000000000000, 0.000000000000000000, 1.000000000000000000 ) ) ;
#61 = COLOUR_RGB ( '',0.7529411764705882248, 0.7529411764705882248, 0.7529411764705882248 ) ;
#62 = DIRECTION ( 'NONE',  ( 0.000000000000000000, -1.000000000000000000, 0.000000000000000000 ) ) ;
#63 = CARTESIAN_POINT ( 'NONE',  ( 0.06300000000000002820, -0.06700000000000003175, 0.000000000000000000 ) ) ;
#64 = STYLED_ITEM ( 'NONE', ( #759 ), #801 ) ;
#65 = ORIENTED_EDGE ( 'NONE', *, *, #483, .F. ) ;
#66 = DIRECTION ( 'NONE',  ( -0.000000000000000000, 1.000000000000000000, 0.000000000000000000 ) ) ;
#67 = CARTESIAN_POINT ( 'NONE',  ( -0.02000000000000000389, 0.04000000000000000777, -0.01000000000000000194 ) ) ;
#68 = CARTESIAN_POINT ( 'NONE',  ( -1.059000000000000163, -0.06000000000000001860, -0.01000000000000000194 ) ) ;
#69 = ORIENTED_EDGE ( 'NONE', *, *, #1016, .F. ) ;
#70 = LINE ( 'NONE', #396, #355 ) ;
#71 = DIRECTION ( 'NONE',  ( 0.000000000000000000, 0.000000000000000000, -1.000000000000000000 ) ) ;
#72 = LINE ( 'NONE', #636, #1007 ) ;
#73 = CARTESIAN_POINT ( 'NONE',  ( 0.06300000000000001432, -4.689351749687775869E-18, 0.000000000000000000 ) ) ;
#74 = ORIENTED_EDGE ( 'NONE', *, *, #34, .T. ) ;
#75 = CARTESIAN_POINT ( 'NONE',  ( 4.268512490100411279E-18, -0.04774934565893999144, -0.04700000000000001399 ) ) ;
#76 = VECTOR ( 'NONE', #1042, 39.37007874015748143 ) ;
#77 = DIRECTION ( 'NONE',  ( 0.000000000000000000, -1.000000000000000000, -0.000000000000000000 ) ) ;
#78 = CARTESIAN_POINT ( 'NONE',  ( 8.537024980200822558E-18, -4.013675923527252075E-18, 0.000000000000000000 ) ) ;
#79 = ADVANCED_FACE ( 'NONE', ( #680 ), #148, .T. ) ;
#80 = VERTEX_POINT ( 'NONE', #793 ) ;
#81 = CIRCLE ( 'NONE', #590, 0.03550000000000001071 ) ;
#82 = EDGE_CURVE ( 'NONE', #949, #748, #139, .T. ) ;
#83 = EDGE_CURVE ( 'NONE', #202, #21, #536, .T. ) ;
#84 = CARTESIAN_POINT ( 'NONE',  ( -1.018000000000000238, 0.06000000000000001166, 0.01000000000000000194 ) ) ;
#85 = DIRECTION ( 'NONE',  ( -1.000000000000000000, 0.000000000000000000, -0.000000000000000000 ) ) ;
#86 = ORIENTED_EDGE ( 'NONE', *, *, #987, .T. ) ;
#87 =( LENGTH_UNIT ( ) NAMED_UNIT ( * ) SI_UNIT ( $, .METRE. ) );
#88 = DIRECTION ( 'NONE',  ( -1.000000000000000000, 0.000000000000000000, -0.000000000000000000 ) ) ;
#89 = ORIENTED_EDGE ( 'NONE', *, *, #848, .F. ) ;
#90 = FACE_OUTER_BOUND ( 'NONE', #411, .T. ) ;
#91 = VECTOR ( 'NONE', #472, 39.37007874015748143 ) ;
#92 = AXIS2_PLACEMENT_3D ( 'NONE', #408, #1018, #856 ) ;
#93 = ORIENTED_EDGE ( 'NONE', *, *, #268, .T. ) ;
#94 = DIRECTION ( 'NONE',  ( -0.000000000000000000, -1.000000000000000000, 0.000000000000000000 ) ) ;
#95 = PRESENTATION_STYLE_ASSIGNMENT (( #272 ) ) ;
#96 = VECTOR ( 'NONE', #813, 39.37007874015748143 ) ;
#97 = SURFACE_STYLE_FILL_AREA ( #819 ) ;
#98 = EDGE_CURVE ( 'NONE', #430, #892, #72, .T. ) ;
#99 = VERTEX_POINT ( 'NONE', #316 ) ;
#100 = CARTESIAN_POINT ( 'NONE',  ( -0.02000000000000000389, -0.04000000000000000777, -0.01000000000000000194 ) ) ;
#101 = UNCERTAINTY_MEASURE_WITH_UNIT (LENGTH_MEASURE( 1.000000000000000082E-05 ), #283, 'distance_accuracy_value', 'NONE');
#102 = DIRECTION ( 'NONE',  ( 0.000000000000000000, 0.000000000000000000, -1.000000000000000000 ) ) ;
#103 = ORIENTED_EDGE ( 'NONE', *, *, #124, .F. ) ;
#104 = CARTESIAN_POINT ( 'NONE',  ( 0.000000000000000000, -0.06777550400000002806, -0.04700000000000001399 ) ) ;
#105 = DIRECTION ( 'NONE',  ( 1.000000000000000000, 0.000000000000000000, -0.000000000000000000 ) ) ;
#106 = AXIS2_PLACEMENT_3D ( 'NONE', #362, #29, #435 ) ;
#107 = ORIENTED_EDGE ( 'NONE', *, *, #207, .T. ) ;
#108 = FILL_AREA_STYLE_COLOUR ( '', #523 ) ;
#109 = VECTOR ( 'NONE', #814, 39.37007874015748143 ) ;
#110 = ORIENTED_EDGE ( 'NONE', *, *, #595, .T. ) ;
#111 = FILL_AREA_STYLE_COLOUR ( '', #61 ) ;
#112 =( GEOMETRIC_REPRESENTATION_CONTEXT ( 3 ) GLOBAL_UNCERTAINTY_ASSIGNED_CONTEXT ( ( #494 ) ) GLOBAL_UNIT_ASSIGNED_CONTEXT ( ( #373, #534, #727 ) ) REPRESENTATION_CONTEXT ( 'NONE', 'WORKASPACE' ) );
#113 = AXIS2_PLACEMENT_3D ( 'NONE', #961, #720, #887 ) ;
#114 = AXIS2_PLACEMENT_3D ( 'NONE', #380, #302, #1034 ) ;
#115 = DIMENSIONAL_EXPONENTS ( 1.000000000000000000, 0.000000000000000000, 0.000000000000000000, 0.000000000000000000, 0.000000000000000000, 0.000000000000000000, 0.000000000000000000 ) ;
#116 = LINE ( 'NONE', #763, #901 ) ;
#117 = CARTESIAN_POINT ( 'NONE',  ( -1.018000000000000238, 0.04000000000000000777, 0.01000000000000000194 ) ) ;
#118 = ORIENTED_EDGE ( 'NONE', *, *, #595, .F. ) ;
#119 = CARTESIAN_POINT ( 'NONE',  ( -1.018000000000000238, 0.06000000000000001860, -0.01000000000000000194 ) ) ;
#120 = VERTEX_POINT ( 'NONE', #642 ) ;
#121 = CARTESIAN_POINT ( 'NONE',  ( 0.08250000000000004552, -0.03550000000000001071, 0.000000000000000000 ) ) ;
#122 = DIRECTION ( 'NONE',  ( -0.000000000000000000, 0.000000000000000000, 1.000000000000000000 ) ) ;
#123 = ADVANCED_FACE ( 'NONE', ( #296 ), #962, .T. ) ;
#124 = EDGE_CURVE ( 'NONE', #824, #933, #215, .T. ) ;
#125 = EDGE_LOOP ( 'NONE', ( #118, #400, #326, #93 ) ) ;
#126 = DIRECTION ( 'NONE',  ( 0.000000000000000000, -0.000000000000000000, -1.000000000000000000 ) ) ;
#127 = AXIS2_PLACEMENT_3D ( 'NONE', #826, #102, #88 ) ;
#128 = DIMENSIONAL_EXPONENTS ( 1.000000000000000000, 0.000000000000000000, 0.000000000000000000, 0.000000000000000000, 0.000000000000000000, 0.000000000000000000, 0.000000000000000000 ) ;
#129 = VECTOR ( 'NONE', #66, 39.37007874015748143 ) ;
#130 = VECTOR ( 'NONE', #513, 39.37007874015748143 ) ;
#131 = VERTEX_POINT ( 'NONE', #152 ) ;
#132 = DIRECTION ( 'NONE',  ( 0.000000000000000000, -0.000000000000000000, -1.000000000000000000 ) ) ;
#133 = ORIENTED_EDGE ( 'NONE', *, *, #207, .F. ) ;
#134 =( NAMED_UNIT ( * ) SI_UNIT ( $, .STERADIAN. ) SOLID_ANGLE_UNIT ( ) );
#135 =( NAMED_UNIT ( * ) PLANE_ANGLE_UNIT ( ) SI_UNIT ( $, .RADIAN. ) );
#136 = VERTEX_POINT ( 'NONE', #798 ) ;
#137 = LINE ( 'NONE', #44, #773 ) ;
#138 = LINE ( 'NONE', #755, #883 ) ;
#139 = LINE ( 'NONE', #157, #76 ) ;
#140 = CARTESIAN_POINT ( 'NONE',  ( -1.018000000000000238, 0.06000000000000001860, -0.01000000000000000194 ) ) ;
#141 = ORIENTED_EDGE ( 'NONE', *, *, #784, .T. ) ;
#142 = CYLINDRICAL_SURFACE ( 'NONE', #113, 0.03550000000000001071 ) ;
#143 = CLOSED_SHELL ( 'NONE', ( #459, #599, #190, #801, #433, #532, #349, #800, #308, #204 ) ) ;
#144 = FACE_OUTER_BOUND ( 'NONE', #367, .T. ) ;
#145 = MANIFOLD_SOLID_BREP ( 'Split1[1]', #143 ) ;
#146 = EDGE_CURVE ( 'NONE', #448, #824, #699, .T. ) ;
#147 =( GEOMETRIC_REPRESENTATION_CONTEXT ( 3 ) GLOBAL_UNCERTAINTY_ASSIGNED_CONTEXT ( ( #101 ) ) GLOBAL_UNIT_ASSIGNED_CONTEXT ( ( #283, #703, #217 ) ) REPRESENTATION_CONTEXT ( 'NONE', 'WORKASPACE' ) );
#148 = CYLINDRICAL_SURFACE ( 'NONE', #422, 0.02000000000000000389 ) ;
#149 = CARTESIAN_POINT ( 'NONE',  ( 0.000000000000000000, 0.03999999990417885815, -0.01000000000650000387 ) ) ;
#150 = ORIENTED_EDGE ( 'NONE', *, *, #312, .F. ) ;
#151 = PLANE ( 'NONE',  #368 ) ;
#152 = CARTESIAN_POINT ( 'NONE',  ( 0.06300000000000002820, 0.06225065400000002330, -0.04700000000000001399 ) ) ;
#153 = PLANE ( 'NONE',  #943 ) ;
#154 = VERTEX_POINT ( 'NONE', #489 ) ;
#155 = CARTESIAN_POINT ( 'NONE',  ( 0.06300000000000002820, 0.000000000000000000, 0.000000000000000000 ) ) ;
#156 = SURFACE_STYLE_FILL_AREA ( #797 ) ;
#157 = CARTESIAN_POINT ( 'NONE',  ( -1.018000000000000238, 0.02000000000000000389, 0.01000000000000000194 ) ) ;
#158 = FACE_OUTER_BOUND ( 'NONE', #621, .T. ) ;
#159 = ADVANCED_FACE ( 'NONE', ( #788 ), #379, .T. ) ;
#160 = EDGE_CURVE ( 'NONE', #1001, #693, #467, .T. ) ;
#161 = ORIENTED_EDGE ( 'NONE', *, *, #255, .F. ) ;
#162 = CARTESIAN_POINT ( 'NONE',  ( 0.000000000000000000, -0.06777550400000002806, 0.01000000000866666482 ) ) ;
#163 = SURFACE_SIDE_STYLE ('',( #417 ) ) ;
#164 = VECTOR ( 'NONE', #592, 39.37007874015748143 ) ;
#165 = AXIS2_PLACEMENT_3D ( 'NONE', #466, #56, #60 ) ;
#166 =( LENGTH_UNIT ( ) NAMED_UNIT ( * ) SI_UNIT ( $, .METRE. ) );
#167 = PRODUCT_CONTEXT ( 'NONE', #757, 'mechanical' ) ;
#168 = ORIENTED_EDGE ( 'NONE', *, *, #818, .T. ) ;
#169 = AXIS2_PLACEMENT_3D ( 'NONE', #399, #643, #963 ) ;
#170 = LINE ( 'NONE', #162, #96 ) ;
#171 = CARTESIAN_POINT ( 'NONE',  ( 0.000000000000000000, 0.06225065400000003718, 0.04700000000000001399 ) ) ;
#172 = ORIENTED_EDGE ( 'NONE', *, *, #82, .T. ) ;
#173 = SURFACE_STYLE_FILL_AREA ( #10 ) ;
#174 = CARTESIAN_POINT ( 'NONE',  ( 0.06300000000000001432, 0.03550000000000001071, 4.347496136973105044E-18 ) ) ;
#175 = ORIENTED_EDGE ( 'NONE', *, *, #953, .F. ) ;
#176 = DIRECTION ( 'NONE',  ( 0.000000000000000000, 1.000000000000000000, 0.000000000000000000 ) ) ;
#177 = UNCERTAINTY_MEASURE_WITH_UNIT (LENGTH_MEASURE( 1.000000000000000082E-05 ), #996, 'distance_accuracy_value', 'NONE');
#178 = EDGE_CURVE ( 'NONE', #701, #852, #585, .T. ) ;
#179 = VERTEX_POINT ( 'NONE', #387 ) ;
#180 = DIRECTION ( 'NONE',  ( 1.000000000000000000, 0.000000000000000000, -0.000000000000000000 ) ) ;
#181 = PRESENTATION_LAYER_ASSIGNMENT (  '', '', ( #754 ) ) ;
#182 = PLANE ( 'NONE',  #248 ) ;
#183 = EDGE_CURVE ( 'NONE', #892, #903, #331, .T. ) ;
#184 = SURFACE_STYLE_USAGE ( .BOTH. , #12 ) ;
#185 = ORIENTED_EDGE ( 'NONE', *, *, #781, .F. ) ;
#186 = DIRECTION ( 'NONE',  ( -1.000000000000000000, -2.404795769070653637E-16, -0.000000000000000000 ) ) ;
#187 = FACE_OUTER_BOUND ( 'NONE', #258, .T. ) ;
#188 = ORIENTED_EDGE ( 'NONE', *, *, #613, .T. ) ;
#189 = FACE_OUTER_BOUND ( 'NONE', #1026, .T. ) ;
#190 = ADVANCED_FACE ( 'NONE', ( #988 ), #729, .F. ) ;
#191 =( CONVERSION_BASED_UNIT ( 'INCH', #654 ) LENGTH_UNIT ( ) NAMED_UNIT ( #935 ) );
#192 = SURFACE_STYLE_USAGE ( .BOTH. , #352 ) ;
#193 = STYLED_ITEM ( 'NONE', ( #743 ), #204 ) ;
#194 = CARTESIAN_POINT ( 'NONE',  ( 0.08250000000000004552, -0.03550000000000001071, 0.000000000000000000 ) ) ;
#195 = DIRECTION ( 'NONE',  ( 4.809591538141307275E-16, -1.000000000000000000, 0.000000000000000000 ) ) ;
#196 = DIMENSIONAL_EXPONENTS ( 1.000000000000000000, 0.000000000000000000, 0.000000000000000000, 0.000000000000000000, 0.000000000000000000, 0.000000000000000000, 0.000000000000000000 ) ;
#197 = ORIENTED_EDGE ( 'NONE', *, *, #1017, .F. ) ;
#198 = SURFACE_STYLE_USAGE ( .BOTH. , #783 ) ;
#199 = VECTOR ( 'NONE', #176, 39.37007874015748143 ) ;
#200 = VERTEX_POINT ( 'NONE', #174 ) ;
#201 = CARTESIAN_POINT ( 'NONE',  ( -0.02000000000000000389, 0.02000000000000000389, -0.01000000000000000194 ) ) ;
#202 = VERTEX_POINT ( 'NONE', #588 ) ;
#203 = SURFACE_SIDE_STYLE ('',( #929 ) ) ;
#204 = ADVANCED_FACE ( 'NONE', ( #504 ), #659, .T. ) ;
#205 = ORIENTED_EDGE ( 'NONE', *, *, #419, .F. ) ;
#206 = CARTESIAN_POINT ( 'NONE',  ( -1.018000000000000238, 0.04000000000000000777, -0.01000000000000000194 ) ) ;
#207 = EDGE_CURVE ( 'NONE', #524, #463, #571, .T. ) ;
#208 = DIMENSIONAL_EXPONENTS ( 1.000000000000000000, 0.000000000000000000, 0.000000000000000000, 0.000000000000000000, 0.000000000000000000, 0.000000000000000000, 0.000000000000000000 ) ;
#209 = ORIENTED_EDGE ( 'NONE', *, *, #83, .T. ) ;
#210 = DIRECTION ( 'NONE',  ( -1.000000000000000000, -2.404795769070653637E-16, -0.000000000000000000 ) ) ;
#211 = ORIENTED_EDGE ( 'NONE', *, *, #34, .F. ) ;
#212 =( NAMED_UNIT ( * ) SI_UNIT ( $, .STERADIAN. ) SOLID_ANGLE_UNIT ( ) );
#213 = VECTOR ( 'NONE', #745, 39.37007874015748143 ) ;
#214 = CIRCLE ( 'NONE', #114, 0.06700000000000003175 ) ;
#215 = LINE ( 'NONE', #619, #91 ) ;
#216 = ORIENTED_EDGE ( 'NONE', *, *, #1037, .F. ) ;
#217 =( NAMED_UNIT ( * ) SI_UNIT ( $, .STERADIAN. ) SOLID_ANGLE_UNIT ( ) );
#218 = CARTESIAN_POINT ( 'NONE',  ( -1.059000000000000163, -0.06000000000000001860, 0.01000000000000000194 ) ) ;
#219 = UNCERTAINTY_MEASURE_WITH_UNIT (LENGTH_MEASURE( 1.000000000000000082E-05 ), #492, 'distance_accuracy_value', 'NONE');
#220 = CARTESIAN_POINT ( 'NONE',  ( 0.06300000000000001432, -0.04774934565893999144, 0.04700000000000001399 ) ) ;
#221 = VERTEX_POINT ( 'NONE', #171 ) ;
#222 = PRESENTATION_STYLE_ASSIGNMENT (( #969 ) ) ;
#223 = EDGE_CURVE ( 'NONE', #1035, #610, #256, .T. ) ;
#224 = FACE_OUTER_BOUND ( 'NONE', #767, .T. ) ;
#225 = CARTESIAN_POINT ( 'NONE',  ( -0.01999999990633346061, -0.06000000000000001860, 0.01000000000000000194 ) ) ;
#226 = CARTESIAN_POINT ( 'NONE',  ( -1.059000000000000163, -0.06000000000000001860, -0.01000000000000000194 ) ) ;
#227 = ORIENTED_EDGE ( 'NONE', *, *, #974, .T. ) ;
#228 =( NAMED_UNIT ( * ) SI_UNIT ( $, .STERADIAN. ) SOLID_ANGLE_UNIT ( ) );
#229 = STYLED_ITEM ( 'NONE', ( #558 ), #145 ) ;
#230 =( GEOMETRIC_REPRESENTATION_CONTEXT ( 3 ) GLOBAL_UNCERTAINTY_ASSIGNED_CONTEXT ( ( #557 ) ) GLOBAL_UNIT_ASSIGNED_CONTEXT ( ( #424, #580, #882 ) ) REPRESENTATION_CONTEXT ( 'NONE', 'WORKASPACE' ) );
#231 = CARTESIAN_POINT ( 'NONE',  ( -0.02000000000000000389, 0.02000000000000000389, 0.01000000000000000194 ) ) ;
#232 = CARTESIAN_POINT ( 'NONE',  ( -1.059000000000000163, -0.06000000000000001860, -0.01000000000000000194 ) ) ;
#233 = MECHANICAL_DESIGN_GEOMETRIC_PRESENTATION_REPRESENTATION (  '', ( #64 ), #570 ) ;
#234 = ORIENTED_EDGE ( 'NONE', *, *, #857, .F. ) ;
#235 = DIRECTION ( 'NONE',  ( -1.000000000000000000, -6.370914164328969630E-17, -0.000000000000000000 ) ) ;
#236 = LENGTH_MEASURE_WITH_UNIT ( LENGTH_MEASURE( 0.02539999999999999897 ), #305 );
#237 = EDGE_CURVE ( 'NONE', #573, #99, #540, .T. ) ;
#238 = FACE_OUTER_BOUND ( 'NONE', #319, .T. ) ;
#239 = EDGE_LOOP ( 'NONE', ( #69, #54, #862, #709 ) ) ;
#240 = DIRECTION ( 'NONE',  ( -0.000000000000000000, 0.000000000000000000, 1.000000000000000000 ) ) ;
#241 = UNCERTAINTY_MEASURE_WITH_UNIT (LENGTH_MEASURE( 1.000000000000000082E-05 ), #834, 'distance_accuracy_value', 'NONE');
#242 = CARTESIAN_POINT ( 'NONE',  ( 0.000000000000000000, 0.02000000000000000389, -0.01000000000000000194 ) ) ;
#243 = DIRECTION ( 'NONE',  ( 0.000000000000000000, -1.000000000000000000, -0.000000000000000000 ) ) ;
#244 = ORIENTED_EDGE ( 'NONE', *, *, #160, .T. ) ;
#245 = DIRECTION ( 'NONE',  ( 6.370914164328969630E-17, -1.000000000000000000, 1.776356839400250465E-15 ) ) ;
#246 = AXIS2_PLACEMENT_3D ( 'NONE', #624, #946, #705 ) ;
#247 = PRODUCT ( '1.8RD', '1.8RD', '', ( #167 ) ) ;
#248 = AXIS2_PLACEMENT_3D ( 'NONE', #601, #605, #122 ) ;
#249 = ORIENTED_EDGE ( 'NONE', *, *, #566, .F. ) ;
#250 = VECTOR ( 'NONE', #94, 39.37007874015748143 ) ;
#251 = LINE ( 'NONE', #981, #552 ) ;
#252 = CARTESIAN_POINT ( 'NONE',  ( -0.01999999980888890472, 0.02000000000000000389, -0.01000000000000000194 ) ) ;
#253 =( NAMED_UNIT ( * ) SI_UNIT ( $, .STERADIAN. ) SOLID_ANGLE_UNIT ( ) );
#254 = EDGE_LOOP ( 'NONE', ( #303, #265 ) ) ;
#255 = EDGE_CURVE ( 'NONE', #560, #984, #919, .T. ) ;
#256 = LINE ( 'NONE', #860, #686 ) ;
#257 = LENGTH_MEASURE_WITH_UNIT ( LENGTH_MEASURE( 0.02539999999999999897 ), #912 );
#258 = EDGE_LOOP ( 'NONE', ( #782, #86, #1010, #244 ) ) ;
#259 = CARTESIAN_POINT ( 'NONE',  ( -1.059000000000000163, -0.06000000000000001860, -0.01000000000000000194 ) ) ;
#260 =( NAMED_UNIT ( * ) SI_UNIT ( $, .STERADIAN. ) SOLID_ANGLE_UNIT ( ) );
#261 = UNCERTAINTY_MEASURE_WITH_UNIT (LENGTH_MEASURE( 1.000000000000000082E-05 ), #982, 'distance_accuracy_value', 'NONE');
#262 = MECHANICAL_DESIGN_GEOMETRIC_PRESENTATION_REPRESENTATION (  '', ( #717 ), #807 ) ;
#263 = SURFACE_SIDE_STYLE ('',( #97 ) ) ;
#264 = DIMENSIONAL_EXPONENTS ( 1.000000000000000000, 0.000000000000000000, 0.000000000000000000, 0.000000000000000000, 0.000000000000000000, 0.000000000000000000, 0.000000000000000000 ) ;
#265 = ORIENTED_EDGE ( 'NONE', *, *, #284, .T. ) ;
#266 = LINE ( 'NONE', #977, #130 ) ;
#267 = VECTOR ( 'NONE', #577, 39.37007874015748143 ) ;
#268 = EDGE_CURVE ( 'NONE', #221, #968, #138, .T. ) ;
#269 = EDGE_LOOP ( 'NONE', ( #549, #802, #760, #959 ) ) ;
#270 = DIRECTION ( 'NONE',  ( 0.000000000000000000, 0.000000000000000000, 1.000000000000000000 ) ) ;
#271 = CARTESIAN_POINT ( 'NONE',  ( -9.106159978880877395E-17, -0.02000000000000000389, -0.01000000000000000194 ) ) ;
#272 = SURFACE_STYLE_USAGE ( .BOTH. , #1003 ) ;
#273 = STYLED_ITEM ( 'NONE', ( #747 ), #308 ) ;
#274 = ORIENTED_EDGE ( 'NONE', *, *, #462, .F. ) ;
#275 = LENGTH_MEASURE_WITH_UNIT ( LENGTH_MEASURE( 0.02539999999999999897 ), #898 );
#276 = ORIENTED_EDGE ( 'NONE', *, *, #160, .F. ) ;
#277 = FILL_AREA_STYLE ('',( #470 ) ) ;
#278 = VECTOR ( 'NONE', #480, 39.37007874015748143 ) ;
#279 = VECTOR ( 'NONE', #243, 39.37007874015748143 ) ;
#280 = APPLICATION_CONTEXT ( 'automotive_design' ) ;
#281 = LINE ( 'NONE', #372, #328 ) ;
#282 = LENGTH_MEASURE_WITH_UNIT ( LENGTH_MEASURE( 0.02539999999999999897 ), #522 );
#283 =( CONVERSION_BASED_UNIT ( 'INCH', #48 ) LENGTH_UNIT ( ) NAMED_UNIT ( #128 ) );
#284 = EDGE_CURVE ( 'NONE', #200, #154, #548, .T. ) ;
#285 = ORIENTED_EDGE ( 'NONE', *, *, #332, .T. ) ;
#286 =( CONVERSION_BASED_UNIT ( 'INCH', #282 ) LENGTH_UNIT ( ) NAMED_UNIT ( #927 ) );
#287 = ORIENTED_EDGE ( 'NONE', *, *, #378, .T. ) ;
#288 = DIRECTION ( 'NONE',  ( -0.000000000000000000, -0.000000000000000000, -1.000000000000000000 ) ) ;
#289 = FILL_AREA_STYLE_COLOUR ( '', #685 ) ;
#290 = CARTESIAN_POINT ( 'NONE',  ( -0.02000000000000000389, -0.02000000000000000389, -0.01000000000000000194 ) ) ;
#291 = STYLED_ITEM ( 'NONE', ( #24 ), #190 ) ;
#292 = ORIENTED_EDGE ( 'NONE', *, *, #402, .T. ) ;
#293 = CARTESIAN_POINT ( 'NONE',  ( 0.08249999999271886986, 0.03550000000000022582, 4.347496136973130466E-18 ) ) ;
#294 = VECTOR ( 'NONE', #627, 39.37007874015748143 ) ;
#295 = ADVANCED_FACE ( 'NONE', ( #674 ), #515, .T. ) ;
#296 = FACE_OUTER_BOUND ( 'NONE', #616, .T. ) ;
#297 = FACE_OUTER_BOUND ( 'NONE', #365, .T. ) ;
#298 = VERTEX_POINT ( 'NONE', #444 ) ;
#299 = LINE ( 'NONE', #1047, #278 ) ;
#300 = CARTESIAN_POINT ( 'NONE',  ( 0.000000000000000000, 0.03999999980835770158, 0.04700000000000001399 ) ) ;
#301 =( LENGTH_UNIT ( ) NAMED_UNIT ( * ) SI_UNIT ( $, .METRE. ) );
#302 = DIRECTION ( 'NONE',  ( -1.000000000000000000, -6.370914164328969630E-17, -0.000000000000000000 ) ) ;
#303 = ORIENTED_EDGE ( 'NONE', *, *, #906, .T. ) ;
#304 = FILL_AREA_STYLE_COLOUR ( '', #334 ) ;
#305 =( LENGTH_UNIT ( ) NAMED_UNIT ( * ) SI_UNIT ( $, .METRE. ) );
#306 = DIRECTION ( 'NONE',  ( 0.000000000000000000, -5.335640612625515485E-17, 1.000000000000000000 ) ) ;
#307 = CARTESIAN_POINT ( 'NONE',  ( 0.000000000000000000, 0.01999999993969674844, -0.01000000000433333598 ) ) ;
#308 = ADVANCED_FACE ( 'NONE', ( #535 ), #377, .T. ) ;
#309 = ORIENTED_EDGE ( 'NONE', *, *, #40, .F. ) ;
#310 = CIRCLE ( 'NONE', #246, 0.06700000000000003175 ) ;
#311 = ADVANCED_FACE ( 'NONE', ( #37 ), #358, .T. ) ;
#312 = EDGE_CURVE ( 'NONE', #202, #136, #1021, .T. ) ;
#313 = AXIS2_PLACEMENT_3D ( 'NONE', #231, #397, #970 ) ;
#314 = PLANE ( 'NONE',  #531 ) ;
#315 = AXIS2_PLACEMENT_3D ( 'NONE', #746, #33, #357 ) ;
#316 = CARTESIAN_POINT ( 'NONE',  ( -0.01999999980888890125, 0.04000000000000000777, 0.01000000000000000194 ) ) ;
#317 = CARTESIAN_POINT ( 'NONE',  ( -1.059000000000000163, -0.06000000000000001860, 0.01000000000000000194 ) ) ;
#318 = CIRCLE ( 'NONE', #496, 0.06700000000000003175 ) ;
#319 = EDGE_LOOP ( 'NONE', ( #897, #205, #505, #628, #671, #614, #216 ) ) ;
#320 = FILL_AREA_STYLE ('',( #304 ) ) ;
#321 =( NAMED_UNIT ( * ) PLANE_ANGLE_UNIT ( ) SI_UNIT ( $, .RADIAN. ) );
#322 = DIRECTION ( 'NONE',  ( 0.000000000000000000, -1.000000000000000000, 0.000000000000000000 ) ) ;
#323 = VERTEX_POINT ( 'NONE', #293 ) ;
#324 = DIRECTION ( 'NONE',  ( 0.000000000000000000, -1.000000000000000000, -0.000000000000000000 ) ) ;
#325 = PRESENTATION_STYLE_ASSIGNMENT (( #965 ) ) ;
#326 = ORIENTED_EDGE ( 'NONE', *, *, #566, .T. ) ;
#327 = DIRECTION ( 'NONE',  ( 0.000000000000000000, 1.000000000000000000, -0.000000000000000000 ) ) ;
#328 = VECTOR ( 'NONE', #758, 39.37007874015748143 ) ;
#329 = MECHANICAL_DESIGN_GEOMETRIC_PRESENTATION_REPRESENTATION (  '', ( #273 ), #866 ) ;
#330 = PRESENTATION_LAYER_ASSIGNMENT (  '', '', ( #991 ) ) ;
#331 = LINE ( 'NONE', #242, #569 ) ;
#332 = EDGE_CURVE ( 'NONE', #661, #1035, #310, .T. ) ;
#333 = ORIENTED_EDGE ( 'NONE', *, *, #578, .F. ) ;
#334 = COLOUR_RGB ( '',1.000000000000000000, 0.000000000000000000, 0.000000000000000000 ) ;
#335 = CARTESIAN_POINT ( 'NONE',  ( -1.018000000000000238, 0.04000000000000000777, -0.01000000000000000194 ) ) ;
#336 = LENGTH_MEASURE_WITH_UNIT ( LENGTH_MEASURE( 0.02539999999999999897 ), #17 );
#337 = PRODUCT_DEFINITION_CONTEXT ( 'detailed design', #280, 'design' ) ;
#338 =( NAMED_UNIT ( * ) SI_UNIT ( $, .STERADIAN. ) SOLID_ANGLE_UNIT ( ) );
#339 =( NAMED_UNIT ( * ) PLANE_ANGLE_UNIT ( ) SI_UNIT ( $, .RADIAN. ) );
#340 = ORIENTED_EDGE ( 'NONE', *, *, #647, .F. ) ;
#341 = CARTESIAN_POINT ( 'NONE',  ( 0.08250000000000003164, 2.134256245050205701E-16, 0.000000000000000000 ) ) ;
#342 = CARTESIAN_POINT ( 'NONE',  ( 0.000000000000000000, -0.06777550400000002806, 0.04700000000000001399 ) ) ;
#343 = APPLICATION_PROTOCOL_DEFINITION ( 'draft international standard', 'automotive_design', 1998, #757 ) ;
#344 = ORIENTED_EDGE ( 'NONE', *, *, #1038, .F. ) ;
#345 = CARTESIAN_POINT ( 'NONE',  ( -1.018000000000000238, 0.04000000000000000777, -0.01000000000000000194 ) ) ;
#346 = DIMENSIONAL_EXPONENTS ( 1.000000000000000000, 0.000000000000000000, 0.000000000000000000, 0.000000000000000000, 0.000000000000000000, 0.000000000000000000, 0.000000000000000000 ) ;
#347 = EDGE_CURVE ( 'NONE', #858, #903, #1028, .T. ) ;
#348 = SURFACE_STYLE_FILL_AREA ( #986 ) ;
#349 = ADVANCED_FACE ( 'NONE', ( #224, #5 ), #314, .T. ) ;
#350 = VECTOR ( 'NONE', #839, 39.37007874015748143 ) ;
#351 = VECTOR ( 'NONE', #890, 39.37007874015748143 ) ;
#352 = SURFACE_SIDE_STYLE ('',( #855 ) ) ;
#353 = ORIENTED_EDGE ( 'NONE', *, *, #7, .F. ) ;
#354 = LINE ( 'NONE', #259, #213 ) ;
#355 = VECTOR ( 'NONE', #324, 39.37007874015748143 ) ;
#356 = AXIS2_PLACEMENT_3D ( 'NONE', #73, #547, #559 ) ;
#357 = DIRECTION ( 'NONE',  ( 0.000000000000000000, -1.000000000000000000, 0.000000000000000000 ) ) ;
#358 = PLANE ( 'NONE',  #165 ) ;
#359 = LINE ( 'NONE', #460, #733 ) ;
#360 = FACE_OUTER_BOUND ( 'NONE', #997, .T. ) ;
#361 = EDGE_CURVE ( 'NONE', #14, #120, #640, .T. ) ;
#362 = CARTESIAN_POINT ( 'NONE',  ( 0.06300000000000001432, -4.689351749687775869E-18, 0.000000000000000000 ) ) ;
#363 = CARTESIAN_POINT ( 'NONE',  ( -0.01999999985950006234, -0.02000000002219387563, -0.01000000000866666829 ) ) ;
#364 = DIRECTION ( 'NONE',  ( -1.000000000000000000, 0.000000000000000000, 0.000000000000000000 ) ) ;
#365 = EDGE_LOOP ( 'NONE', ( #916, #333, #107, #795 ) ) ;
#366 = AXIS2_PLACEMENT_3D ( 'NONE', #778, #831, #438 ) ;
#367 = EDGE_LOOP ( 'NONE', ( #555, #741, #168, #731 ) ) ;
#368 = AXIS2_PLACEMENT_3D ( 'NONE', #915, #434, #678 ) ;
#369 = FILL_AREA_STYLE ('',( #622 ) ) ;
#370 = MECHANICAL_DESIGN_GEOMETRIC_PRESENTATION_REPRESENTATION (  '', ( #442 ), #508 ) ;
#371 =( GEOMETRIC_REPRESENTATION_CONTEXT ( 3 ) GLOBAL_UNCERTAINTY_ASSIGNED_CONTEXT ( ( #805 ) ) GLOBAL_UNIT_ASSIGNED_CONTEXT ( ( #449, #135, #921 ) ) REPRESENTATION_CONTEXT ( 'NONE', 'WORKASPACE' ) );
#372 = CARTESIAN_POINT ( 'NONE',  ( -0.02000000000000000389, -0.02000000000000000389, -0.01000000000000000194 ) ) ;
#373 =( CONVERSION_BASED_UNIT ( 'INCH', #52 ) LENGTH_UNIT ( ) NAMED_UNIT ( #682 ) );
#374 = ORIENTED_EDGE ( 'NONE', *, *, #1038, .T. ) ;
#375 = SURFACE_STYLE_USAGE ( .BOTH. , #692 ) ;
#376 = FACE_OUTER_BOUND ( 'NONE', #239, .T. ) ;
#377 = SPHERICAL_SURFACE ( 'NONE', #366, 0.03550000000000001071 ) ;
#378 = EDGE_CURVE ( 'NONE', #610, #80, #751, .T. ) ;
#379 = CYLINDRICAL_SURFACE ( 'NONE', #92, 0.02000000000000000042 ) ;
#380 = CARTESIAN_POINT ( 'NONE',  ( 0.06300000000000002820, -1.938076574235527477E-34, 0.000000000000000000 ) ) ;
#381 = MECHANICAL_DESIGN_GEOMETRIC_PRESENTATION_REPRESENTATION (  '', ( #193 ), #423 ) ;
#382 = ORIENTED_EDGE ( 'NONE', *, *, #753, .T. ) ;
#383 = LINE ( 'NONE', #55, #551 ) ;
#384 = CARTESIAN_POINT ( 'NONE',  ( 0.000000000000000000, -0.06777550400000002806, -0.01000000001733333289 ) ) ;
#385 = COLOUR_RGB ( '',0.7529411764705882248, 0.7529411764705882248, 0.7529411764705882248 ) ;
#386 = CIRCLE ( 'NONE', #356, 0.03550000000000001071 ) ;
#387 = CARTESIAN_POINT ( 'NONE',  ( 0.08249999999317178534, -2.556565169105120205E-18, 0.03550000000000001071 ) ) ;
#388 = DIRECTION ( 'NONE',  ( -1.000000000000000000, -6.370914164328969630E-17, -0.000000000000000000 ) ) ;
#389 = ORIENTED_EDGE ( 'NONE', *, *, #6, .T. ) ;
#390 =( LENGTH_UNIT ( ) NAMED_UNIT ( * ) SI_UNIT ( $, .METRE. ) );
#391 =( CONVERSION_BASED_UNIT ( 'INCH', #236 ) LENGTH_UNIT ( ) NAMED_UNIT ( #115 ) );
#392 = ADVANCED_FACE ( 'NONE', ( #144 ), #493, .T. ) ;
#393 = DIRECTION ( 'NONE',  ( 1.000000000000000000, 0.000000000000000000, -0.000000000000000000 ) ) ;
#394 = CARTESIAN_POINT ( 'NONE',  ( -0.02000000000000000389, 0.04000000000000000777, 0.01000000000000000715 ) ) ;
#395 = ORIENTED_EDGE ( 'NONE', *, *, #7, .T. ) ;
#396 = CARTESIAN_POINT ( 'NONE',  ( -1.059000000000000163, -0.06000000000000001860, 0.01000000000000000194 ) ) ;
#397 = DIRECTION ( 'NONE',  ( 0.000000000000000000, -1.000000000000000000, 0.000000000000000000 ) ) ;
#398 = SURFACE_STYLE_USAGE ( .BOTH. , #1033 ) ;
#399 = CARTESIAN_POINT ( 'NONE',  ( -0.02000000000000000389, 0.04000000000000000777, -0.01000000001300000232 ) ) ;
#400 = ORIENTED_EDGE ( 'NONE', *, *, #598, .F. ) ;
#401 = FACE_OUTER_BOUND ( 'NONE', #775, .T. ) ;
#402 = EDGE_CURVE ( 'NONE', #849, #938, #634, .T. ) ;
#403 = COLOUR_RGB ( '',1.000000000000000000, 0.000000000000000000, 0.000000000000000000 ) ;
#404 = AXIS2_PLACEMENT_3D ( 'NONE', #880, #650, #245 ) ;
#405 = FILL_AREA_STYLE_COLOUR ( '', #975 ) ;
#406 = VECTOR ( 'NONE', #645, 39.37007874015748143 ) ;
#407 = AXIS2_PLACEMENT_3D ( 'NONE', #681, #210, #195 ) ;
#408 = CARTESIAN_POINT ( 'NONE',  ( -0.02000000000000000389, -0.04000000000000000777, -0.01000000000000000194 ) ) ;
#409 = PLANE ( 'NONE',  #869 ) ;
#410 = AXIS2_PLACEMENT_3D ( 'NONE', #541, #867, #794 ) ;
#411 = EDGE_LOOP ( 'NONE', ( #89, #868, #768, #65, #175, #886, #425 ) ) ;
#412 =( NAMED_UNIT ( * ) PLANE_ANGLE_UNIT ( ) SI_UNIT ( $, .RADIAN. ) );
#413 = DIRECTION ( 'NONE',  ( -1.000000000000000000, -0.000000000000000000, 0.000000000000000000 ) ) ;
#414 = DIRECTION ( 'NONE',  ( -0.000000000000000000, 5.335640612625515485E-17, -1.000000000000000000 ) ) ;
#415 = ORIENTED_EDGE ( 'NONE', *, *, #848, .T. ) ;
#416 = LINE ( 'NONE', #955, #406 ) ;
#417 = SURFACE_STYLE_FILL_AREA ( #550 ) ;
#418 = PRODUCT_RELATED_PRODUCT_CATEGORY ( 'part', '', ( #247 ) ) ;
#419 = EDGE_CURVE ( 'NONE', #463, #964, #978, .T. ) ;
#420 = EDGE_LOOP ( 'NONE', ( #649, #1013, #185, #9 ) ) ;
#421 = SURFACE_STYLE_USAGE ( .BOTH. , #502 ) ;
#422 = AXIS2_PLACEMENT_3D ( 'NONE', #67, #306, #707 ) ;
#423 =( GEOMETRIC_REPRESENTATION_CONTEXT ( 3 ) GLOBAL_UNCERTAINTY_ASSIGNED_CONTEXT ( ( #1022 ) ) GLOBAL_UNIT_ASSIGNED_CONTEXT ( ( #966, #20, #338 ) ) REPRESENTATION_CONTEXT ( 'NONE', 'WORKASPACE' ) );
#424 =( CONVERSION_BASED_UNIT ( 'INCH', #656 ) LENGTH_UNIT ( ) NAMED_UNIT ( #602 ) );
#425 = ORIENTED_EDGE ( 'NONE', *, *, #98, .F. ) ;
#426 = AXIS2_PLACEMENT_3D ( 'NONE', #341, #749, #32 ) ;
#427 = CARTESIAN_POINT ( 'NONE',  ( -1.018000000000000238, 0.02000000000000000389, -0.01000000000000000194 ) ) ;
#428 = PRODUCT_DEFINITION_FORMATION_WITH_SPECIFIED_SOURCE ( 'ANY', '', #247, .NOT_KNOWN. ) ;
#429 = DIRECTION ( 'NONE',  ( -0.000000000000000000, 1.000000000000000000, 0.000000000000000000 ) ) ;
#430 = VERTEX_POINT ( 'NONE', #252 ) ;
#431 = CARTESIAN_POINT ( 'NONE',  ( 0.06300000000000002820, -0.06700000000000003175, 0.000000000000000000 ) ) ;
#432 = ADVANCED_FACE ( 'NONE', ( #1039 ), #804, .F. ) ;
#433 = ADVANCED_FACE ( 'NONE', ( #728 ), #151, .F. ) ;
#434 = DIRECTION ( 'NONE',  ( 0.000000000000000000, 0.000000000000000000, 1.000000000000000000 ) ) ;
#435 = DIRECTION ( 'NONE',  ( 2.404795769070653637E-16, -1.000000000000000000, 0.000000000000000000 ) ) ;
#436 = ORIENTED_EDGE ( 'NONE', *, *, #361, .T. ) ;
#437 = DIRECTION ( 'NONE',  ( 0.000000000000000000, -1.000000000000000000, 0.000000000000000000 ) ) ;
#438 = DIRECTION ( 'NONE',  ( -3.846898886275404473E-10, -1.000000000000000000, -1.026310790479462003E-16 ) ) ;
#439 = VECTOR ( 'NONE', #499, 39.37007874015748143 ) ;
#440 = ORIENTED_EDGE ( 'NONE', *, *, #722, .F. ) ;
#441 = DIRECTION ( 'NONE',  ( -1.000000000000000000, 0.000000000000000000, -0.000000000000000000 ) ) ;
#442 = STYLED_ITEM ( 'NONE', ( #95 ), #481 ) ;
#443 = VECTOR ( 'NONE', #441, 39.37007874015748143 ) ;
#444 = CARTESIAN_POINT ( 'NONE',  ( 0.000000000000000000, 0.06225065400000003718, -0.04700000000000001399 ) ) ;
#445 = DIRECTION ( 'NONE',  ( -0.000000000000000000, -0.000000000000000000, -1.000000000000000000 ) ) ;
#446 = ORIENTED_EDGE ( 'NONE', *, *, #378, .F. ) ;
#447 = CARTESIAN_POINT ( 'NONE',  ( -1.018000000000000238, 0.02000000000000000389, 0.01000000000000000194 ) ) ;
#448 = VERTEX_POINT ( 'NONE', #28 ) ;
#449 =( CONVERSION_BASED_UNIT ( 'INCH', #275 ) LENGTH_UNIT ( ) NAMED_UNIT ( #346 ) );
#450 = ORIENTED_EDGE ( 'NONE', *, *, #27, .F. ) ;
#451 = COLOUR_RGB ( '',1.000000000000000000, 0.000000000000000000, 0.000000000000000000 ) ;
#452 =( GEOMETRIC_REPRESENTATION_CONTEXT ( 3 ) GLOBAL_UNCERTAINTY_ASSIGNED_CONTEXT ( ( #511 ) ) GLOBAL_UNIT_ASSIGNED_CONTEXT ( ( #191, #503, #518 ) ) REPRESENTATION_CONTEXT ( 'NONE', 'WORKASPACE' ) );
#453 = ORIENTED_EDGE ( 'NONE', *, *, #465, .T. ) ;
#454 = EDGE_LOOP ( 'NONE', ( #603, #913, #197, #873 ) ) ;
#455 =( GEOMETRIC_REPRESENTATION_CONTEXT ( 3 ) GLOBAL_UNCERTAINTY_ASSIGNED_CONTEXT ( ( #241 ) ) GLOBAL_UNIT_ASSIGNED_CONTEXT ( ( #834, #514, #260 ) ) REPRESENTATION_CONTEXT ( 'NONE', 'WORKASPACE' ) );
#456 = FACE_OUTER_BOUND ( 'NONE', #516, .T. ) ;
#457 = PRESENTATION_LAYER_ASSIGNMENT (  '', '', ( #64 ) ) ;
#458 = DIMENSIONAL_EXPONENTS ( 1.000000000000000000, 0.000000000000000000, 0.000000000000000000, 0.000000000000000000, 0.000000000000000000, 0.000000000000000000, 0.000000000000000000 ) ;
#459 = ADVANCED_FACE ( 'NONE', ( #187 ), #750, .T. ) ;
#460 = CARTESIAN_POINT ( 'NONE',  ( -1.059000000000000163, -0.02000000005918366880, 0.01000000000000000194 ) ) ;
#461 = SURFACE_STYLE_FILL_AREA ( #932 ) ;
#462 = EDGE_CURVE ( 'NONE', #221, #610, #905, .T. ) ;
#463 = VERTEX_POINT ( 'NONE', #817 ) ;
#464 = CARTESIAN_POINT ( 'NONE',  ( -1.059000000000000163, -0.04000000000000000777, 0.01000000000000000194 ) ) ;
#465 = EDGE_CURVE ( 'NONE', #938, #560, #655, .T. ) ;
#466 = CARTESIAN_POINT ( 'NONE',  ( -0.02000000000000000389, 0.02000000000000000389, -0.01000000000000000194 ) ) ;
#467 = LINE ( 'NONE', #779, #47 ) ;
#468 = CARTESIAN_POINT ( 'NONE',  ( 4.268512490100411279E-18, -0.04774934565893999144, -0.04700000000000001399 ) ) ;
#469 = ORIENTED_EDGE ( 'NONE', *, *, #530, .T. ) ;
#470 = FILL_AREA_STYLE_COLOUR ( '', #908 ) ;
#471 = DIRECTION ( 'NONE',  ( -0.000000000000000000, 0.000000000000000000, 1.000000000000000000 ) ) ;
#472 = DIRECTION ( 'NONE',  ( -0.000000000000000000, -0.000000000000000000, -1.000000000000000000 ) ) ;
#473 = CARTESIAN_POINT ( 'NONE',  ( -0.01999999995316668194, -0.04000000000000000777, -0.01000000000000000194 ) ) ;
#474 = ORIENTED_EDGE ( 'NONE', *, *, #146, .T. ) ;
#475 = CARTESIAN_POINT ( 'NONE',  ( 0.08250000000000003164, 2.134256245050205701E-16, 0.000000000000000000 ) ) ;
#476 = VECTOR ( 'NONE', #917, 39.37007874015748143 ) ;
#477 = DIRECTION ( 'NONE',  ( -1.000000000000000000, 0.000000000000000000, -0.000000000000000000 ) ) ;
#478 = DIRECTION ( 'NONE',  ( 0.000000000000000000, 0.000000000000000000, 1.000000000000000000 ) ) ;
#479 = ORIENTED_EDGE ( 'NONE', *, *, #562, .T. ) ;
#480 = DIRECTION ( 'NONE',  ( -0.000000000000000000, 5.335640612625512404E-17, -1.000000000000000000 ) ) ;
#481 = MANIFOLD_SOLID_BREP ( 'Split1[3]', #786 ) ;
#482 =( NAMED_UNIT ( * ) SI_UNIT ( $, .STERADIAN. ) SOLID_ANGLE_UNIT ( ) );
#483 = EDGE_CURVE ( 'NONE', #1005, #501, #383, .T. ) ;
#484 =( NAMED_UNIT ( * ) PLANE_ANGLE_UNIT ( ) SI_UNIT ( $, .RADIAN. ) );
#485 = DIRECTION ( 'NONE',  ( 1.000000000000000000, 0.000000000000000000, -0.000000000000000000 ) ) ;
#486 = ORIENTED_EDGE ( 'NONE', *, *, #987, .F. ) ;
#487 = DIRECTION ( 'NONE',  ( 1.000000000000000000, 0.000000000000000000, 0.000000000000000000 ) ) ;
#488 = MANIFOLD_SOLID_BREP ( 'Split1[2]', #667 ) ;
#489 = CARTESIAN_POINT ( 'NONE',  ( 0.06300000000000002820, -0.03550000000000001765, 0.000000000000000000 ) ) ;
#490 = DIRECTION ( 'NONE',  ( 0.000000000000000000, 0.000000000000000000, 1.000000000000000000 ) ) ;
#491 = ORIENTED_EDGE ( 'NONE', *, *, #462, .T. ) ;
#492 =( CONVERSION_BASED_UNIT ( 'INCH', #803 ) LENGTH_UNIT ( ) NAMED_UNIT ( #766 ) );
#493 = PLANE ( 'NONE',  #313 ) ;
#494 = UNCERTAINTY_MEASURE_WITH_UNIT (LENGTH_MEASURE( 1.000000000000000082E-05 ), #373, 'distance_accuracy_value', 'NONE');
#495 = VECTOR ( 'NONE', #487, 39.37007874015748143 ) ;
#496 = AXIS2_PLACEMENT_3D ( 'NONE', #78, #725, #712 ) ;
#497 = ORIENTED_EDGE ( 'NONE', *, *, #41, .F. ) ;
#498 = ADVANCED_FACE ( 'NONE', ( #376 ), #182, .F. ) ;
#499 = DIRECTION ( 'NONE',  ( 1.000000000000000000, 0.000000000000000000, -0.000000000000000000 ) ) ;
#500 =( LENGTH_UNIT ( ) NAMED_UNIT ( * ) SI_UNIT ( $, .METRE. ) );
#501 = VERTEX_POINT ( 'NONE', #119 ) ;
#502 = SURFACE_SIDE_STYLE ('',( #173 ) ) ;
#503 =( NAMED_UNIT ( * ) PLANE_ANGLE_UNIT ( ) SI_UNIT ( $, .RADIAN. ) );
#504 = FACE_OUTER_BOUND ( 'NONE', #567, .T. ) ;
#505 = ORIENTED_EDGE ( 'NONE', *, *, #633, .F. ) ;
#506 = PRESENTATION_LAYER_ASSIGNMENT (  '', '', ( #193 ) ) ;
#507 = ADVANCED_FACE ( 'NONE', ( #1027 ), #539, .T. ) ;
#508 =( GEOMETRIC_REPRESENTATION_CONTEXT ( 3 ) GLOBAL_UNCERTAINTY_ASSIGNED_CONTEXT ( ( #261 ) ) GLOBAL_UNIT_ASSIGNED_CONTEXT ( ( #982, #854, #134 ) ) REPRESENTATION_CONTEXT ( 'NONE', 'WORKASPACE' ) );
#509 = EDGE_LOOP ( 'NONE', ( #395, #976, #292, #453, #538, #1031, #474 ) ) ;
#510 = PLANE ( 'NONE',  #822 ) ;
#511 = UNCERTAINTY_MEASURE_WITH_UNIT (LENGTH_MEASURE( 1.000000000000000082E-05 ), #191, 'distance_accuracy_value', 'NONE');
#512 = EDGE_LOOP ( 'NONE', ( #683, #989, #843, #172, #639, #344, #436 ) ) ;
#513 = DIRECTION ( 'NONE',  ( -1.000000000000000000, -2.404795769070653637E-16, -0.000000000000000000 ) ) ;
#514 =( NAMED_UNIT ( * ) PLANE_ANGLE_UNIT ( ) SI_UNIT ( $, .RADIAN. ) );
#515 = PLANE ( 'NONE',  #519 ) ;
#516 = EDGE_LOOP ( 'NONE', ( #486, #285, #980, #287 ) ) ;
#517 = CYLINDRICAL_SURFACE ( 'NONE', #407, 0.03550000000000001071 ) ;
#518 =( NAMED_UNIT ( * ) SI_UNIT ( $, .STERADIAN. ) SOLID_ANGLE_UNIT ( ) );
#519 = AXIS2_PLACEMENT_3D ( 'NONE', #218, #837, #105 ) ;
#520 =( NAMED_UNIT ( * ) PLANE_ANGLE_UNIT ( ) SI_UNIT ( $, .RADIAN. ) );
#521 = DIRECTION ( 'NONE',  ( -1.000000000000000000, -2.404795769070653637E-16, -0.000000000000000000 ) ) ;
#522 =( LENGTH_UNIT ( ) NAMED_UNIT ( * ) SI_UNIT ( $, .METRE. ) );
#523 = COLOUR_RGB ( '',1.000000000000000000, 0.000000000000000000, 0.000000000000000000 ) ;
#524 = VERTEX_POINT ( 'NONE', #464 ) ;
#525 = DIRECTION ( 'NONE',  ( -0.000000000000000000, -1.000000000000000000, 0.000000000000000000 ) ) ;
#526 = ORIENTED_EDGE ( 'NONE', *, *, #953, .T. ) ;
#527 = SURFACE_STYLE_USAGE ( .BOTH. , #203 ) ;
#528 = EDGE_LOOP ( 'NONE', ( #827, #276, #188, #734 ) ) ;
#529 = VECTOR ( 'NONE', #521, 39.37007874015748143 ) ;
#530 = EDGE_CURVE ( 'NONE', #120, #501, #137, .T. ) ;
#531 = AXIS2_PLACEMENT_3D ( 'NONE', #11, #870, #71 ) ;
#532 = ADVANCED_FACE ( 'NONE', ( #456 ), #684, .T. ) ;
#533 = CARTESIAN_POINT ( 'NONE',  ( -0.02000000000000001776, -0.06000000000000001166, -0.01000000000000000368 ) ) ;
#534 =( NAMED_UNIT ( * ) PLANE_ANGLE_UNIT ( ) SI_UNIT ( $, .RADIAN. ) );
#535 = FACE_OUTER_BOUND ( 'NONE', #420, .T. ) ;
#536 = LINE ( 'NONE', #876, #865 ) ;
#537 = LINE ( 'NONE', #677, #792 ) ;
#538 = ORIENTED_EDGE ( 'NONE', *, *, #255, .T. ) ;
#539 = PLANE ( 'NONE',  #49 ) ;
#540 = LINE ( 'NONE', #785, #770 ) ;
#541 = CARTESIAN_POINT ( 'NONE',  ( -0.02000000000000000389, -0.04000000000000000777, -0.01000000000000000194 ) ) ;
#542 = EDGE_CURVE ( 'NONE', #938, #25, #299, .T. ) ;
#543 = ORIENTED_EDGE ( 'NONE', *, *, #41, .T. ) ;
#544 = LENGTH_MEASURE_WITH_UNIT ( LENGTH_MEASURE( 0.02539999999999999897 ), #941 );
#545 = DIRECTION ( 'NONE',  ( 0.000000000000000000, 1.000000000000000000, -0.000000000000000000 ) ) ;
#546 = AXIS2_PLACEMENT_3D ( 'NONE', #871, #545, #711 ) ;
#547 = DIRECTION ( 'NONE',  ( -1.000000000000000000, -2.404795769070653637E-16, -0.000000000000000000 ) ) ;
#548 = CIRCLE ( 'NONE', #106, 0.03550000000000001071 ) ;
#549 = ORIENTED_EDGE ( 'NONE', *, *, #1037, .T. ) ;
#550 = FILL_AREA_STYLE ('',( #715 ) ) ;
#551 = VECTOR ( 'NONE', #939, 39.37007874015748143 ) ;
#552 = VECTOR ( 'NONE', #22, 39.37007874015748143 ) ;
#553 = FILL_AREA_STYLE ('',( #289 ) ) ;
#554 = CARTESIAN_POINT ( 'NONE',  ( -0.02000000000000001776, -0.06000000000000001166, 0.01000000000000000021 ) ) ;
#555 = ORIENTED_EDGE ( 'NONE', *, *, #1016, .T. ) ;
#556 = DIRECTION ( 'NONE',  ( 1.274182832865793926E-16, -1.000000000000000000, 0.000000000000000000 ) ) ;
#557 = UNCERTAINTY_MEASURE_WITH_UNIT (LENGTH_MEASURE( 1.000000000000000082E-05 ), #424, 'distance_accuracy_value', 'NONE');
#558 = PRESENTATION_STYLE_ASSIGNMENT (( #398 ) ) ;
#559 = DIRECTION ( 'NONE',  ( 2.404795769070653637E-16, -1.000000000000000000, 0.000000000000000000 ) ) ;
#560 = VERTEX_POINT ( 'NONE', #714 ) ;
#561 = DIRECTION ( 'NONE',  ( -0.000000000000000000, 0.000000000000000000, 1.000000000000000000 ) ) ;
#562 = EDGE_CURVE ( 'NONE', #693, #131, #568, .T. ) ;
#563 = FILL_AREA_STYLE_COLOUR ( '', #637 ) ;
#564 = CARTESIAN_POINT ( 'NONE',  ( -3.035386659626959132E-17, -0.02000000003945578281, 0.01000000000000000194 ) ) ;
#565 = EDGE_CURVE ( 'NONE', #323, #701, #702, .T. ) ;
#566 = EDGE_CURVE ( 'NONE', #298, #221, #416, .T. ) ;
#567 = EDGE_LOOP ( 'NONE', ( #249, #832, #644, #446, #274 ) ) ;
#568 = LINE ( 'NONE', #4, #129 ) ;
#569 = VECTOR ( 'NONE', #429, 39.37007874015748143 ) ;
#570 =( GEOMETRIC_REPRESENTATION_CONTEXT ( 3 ) GLOBAL_UNCERTAINTY_ASSIGNED_CONTEXT ( ( #625 ) ) GLOBAL_UNIT_ASSIGNED_CONTEXT ( ( #286, #844, #46 ) ) REPRESENTATION_CONTEXT ( 'NONE', 'WORKASPACE' ) );
#571 = LINE ( 'NONE', #983, #351 ) ;
#572 = CARTESIAN_POINT ( 'NONE',  ( 0.000000000000000000, 0.000000000000000000, 0.000000000000000000 ) ) ;
#573 = VERTEX_POINT ( 'NONE', #629 ) ;
#574 = CARTESIAN_POINT ( 'NONE',  ( 0.08250000000000004552, 2.556565169105119050E-18, -0.03550000000000001071 ) ) ;
#575 = SURFACE_STYLE_USAGE ( .BOTH. , #163 ) ;
#576 = ORIENTED_EDGE ( 'NONE', *, *, #675, .T. ) ;
#577 = DIRECTION ( 'NONE',  ( 1.000000000000000000, 0.000000000000000000, -0.000000000000000000 ) ) ;
#578 = EDGE_CURVE ( 'NONE', #524, #849, #70, .T. ) ;
#579 = DIRECTION ( 'NONE',  ( -1.000000000000000000, -6.370914164328969630E-17, -0.000000000000000000 ) ) ;
#580 =( NAMED_UNIT ( * ) PLANE_ANGLE_UNIT ( ) SI_UNIT ( $, .RADIAN. ) );
#581 = DIRECTION ( 'NONE',  ( 1.000000000000000000, 0.000000000000000000, 0.000000000000000000 ) ) ;
#582 = ORIENTED_EDGE ( 'NONE', *, *, #752, .F. ) ;
#583 = CARTESIAN_POINT ( 'NONE',  ( -0.01999999985666668992, 0.02000000000000000389, 0.01000000000000000194 ) ) ;
#584 = CARTESIAN_POINT ( 'NONE',  ( 0.06300000000000002820, 0.000000000000000000, 0.000000000000000000 ) ) ;
#585 = CIRCLE ( 'NONE', #957, 0.03550000000000001071 ) ;
#586 = PRESENTATION_LAYER_ASSIGNMENT (  '', '', ( #1041 ) ) ;
#587 = PRESENTATION_LAYER_ASSIGNMENT (  '', '', ( #16 ) ) ;
#588 = CARTESIAN_POINT ( 'NONE',  ( -4.553079989440438697E-17, -0.02000000001479591838, -0.01000000001733333289 ) ) ;
#589 = ORIENTED_EDGE ( 'NONE', *, *, #40, .T. ) ;
#590 = AXIS2_PLACEMENT_3D ( 'NONE', #914, #186, #437 ) ;
#591 = CARTESIAN_POINT ( 'NONE',  ( 0.000000000000000000, 0.01999999990954512072, 0.01000000000577777777 ) ) ;
#592 = DIRECTION ( 'NONE',  ( 0.000000000000000000, -0.000000000000000000, -1.000000000000000000 ) ) ;
#593 = CARTESIAN_POINT ( 'NONE',  ( 0.06300000000000002820, -0.04774934565893999144, -0.04700000000000001399 ) ) ;
#594 = SURFACE_STYLE_USAGE ( .BOTH. , #668 ) ;
#595 = EDGE_CURVE ( 'NONE', #131, #968, #874, .T. ) ;
#596 = LINE ( 'NONE', #695, #164 ) ;
#597 = DIRECTION ( 'NONE',  ( 1.000000000000000000, 0.000000000000000000, 0.000000000000000000 ) ) ;
#598 = EDGE_CURVE ( 'NONE', #298, #131, #879, .T. ) ;
#599 = ADVANCED_FACE ( 'NONE', ( #401 ), #142, .T. ) ;
#600 = ORIENTED_EDGE ( 'NONE', *, *, #740, .F. ) ;
#601 = CARTESIAN_POINT ( 'NONE',  ( 4.268512490100411279E-18, -0.04774934565893999144, -0.04700000000000001399 ) ) ;
#602 = DIMENSIONAL_EXPONENTS ( 1.000000000000000000, 0.000000000000000000, 0.000000000000000000, 0.000000000000000000, 0.000000000000000000, 0.000000000000000000, 0.000000000000000000 ) ;
#603 = ORIENTED_EDGE ( 'NONE', *, *, #542, .F. ) ;
#604 = ORIENTED_EDGE ( 'NONE', *, *, #223, .F. ) ;
#605 = DIRECTION ( 'NONE',  ( -1.000000000000000000, 0.000000000000000000, -0.000000000000000000 ) ) ;
#606 = CIRCLE ( 'NONE', #410, 0.02000000000000000042 ) ;
#607 = ORIENTED_EDGE ( 'NONE', *, *, #740, .T. ) ;
#608 = FILL_AREA_STYLE_COLOUR ( '', #994 ) ;
#609 = EDGE_CURVE ( 'NONE', #748, #858, #170, .T. ) ;
#610 = VERTEX_POINT ( 'NONE', #791 ) ;
#611 =( LENGTH_UNIT ( ) NAMED_UNIT ( * ) SI_UNIT ( $, .METRE. ) );
#612 = ADVANCED_FACE ( 'NONE', ( #710 ), #904, .T. ) ;
#613 = EDGE_CURVE ( 'NONE', #1001, #298, #672, .T. ) ;
#614 = ORIENTED_EDGE ( 'NONE', *, *, #312, .T. ) ;
#615 = DIRECTION ( 'NONE',  ( 0.000000000000000000, -1.000000000000000000, 0.000000000000000000 ) ) ;
#616 = EDGE_LOOP ( 'NONE', ( #133, #353, #820, #936 ) ) ;
#617 = DIRECTION ( 'NONE',  ( -0.000000000000000000, 1.000000000000000000, 0.000000000000000000 ) ) ;
#618 = PRESENTATION_LAYER_ASSIGNMENT (  '', '', ( #273 ) ) ;
#619 = CARTESIAN_POINT ( 'NONE',  ( -0.02000000000000000042, -0.04000000000000000777, -0.01000000000000000194 ) ) ;
#620 = LINE ( 'NONE', #201, #623 ) ;
#621 = EDGE_LOOP ( 'NONE', ( #925, #713, #45, #719 ) ) ;
#622 = FILL_AREA_STYLE_COLOUR ( '', #385 ) ;
#623 = VECTOR ( 'NONE', #525, 39.37007874015748143 ) ;
#624 = CARTESIAN_POINT ( 'NONE',  ( 0.06300000000000002820, -1.938076574235527477E-34, 0.000000000000000000 ) ) ;
#625 = UNCERTAINTY_MEASURE_WITH_UNIT (LENGTH_MEASURE( 1.000000000000000082E-05 ), #286, 'distance_accuracy_value', 'NONE');
#626 = CARTESIAN_POINT ( 'NONE',  ( 0.08250000000000004552, 4.105960309725337483E-33, 0.000000000000000000 ) ) ;
#627 = DIRECTION ( 'NONE',  ( -0.000000000000000000, -0.000000000000000000, 1.000000000000000000 ) ) ;
#628 = ORIENTED_EDGE ( 'NONE', *, *, #6, .F. ) ;
#629 = CARTESIAN_POINT ( 'NONE',  ( -0.01999999985666667257, 0.04000000000000000777, -0.01000000000000000194 ) ) ;
#630 = DIRECTION ( 'NONE',  ( 0.000000000000000000, 0.000000000000000000, -1.000000000000000000 ) ) ;
#631 = PLANE ( 'NONE',  #641 ) ;
#632 = EDGE_LOOP ( 'NONE', ( #526, #582, #374, #59 ) ) ;
#633 = EDGE_CURVE ( 'NONE', #933, #463, #985, .T. ) ;
#634 = LINE ( 'NONE', #875, #439 ) ;
#635 = MECHANICAL_DESIGN_GEOMETRIC_PRESENTATION_REPRESENTATION (  '', ( #229 ), #972 ) ;
#636 = CARTESIAN_POINT ( 'NONE',  ( -1.018000000000000238, 0.02000000000000000389, -0.01000000000000000194 ) ) ;
#637 = COLOUR_RGB ( '',1.000000000000000000, 0.000000000000000000, 0.000000000000000000 ) ;
#638 = DIRECTION ( 'NONE',  ( 0.000000000000000000, -0.000000000000000000, -1.000000000000000000 ) ) ;
#639 = ORIENTED_EDGE ( 'NONE', *, *, #609, .T. ) ;
#640 = LINE ( 'NONE', #84, #940 ) ;
#641 = AXIS2_PLACEMENT_3D ( 'NONE', #140, #884, #708 ) ;
#642 = CARTESIAN_POINT ( 'NONE',  ( -1.018000000000000238, 0.06000000000000001166, 0.01000000000000000194 ) ) ;
#643 = DIRECTION ( 'NONE',  ( 0.000000000000000000, -5.335640612625515485E-17, 1.000000000000000000 ) ) ;
#644 = ORIENTED_EDGE ( 'NONE', *, *, #930, .F. ) ;
#645 = DIRECTION ( 'NONE',  ( -0.000000000000000000, -0.000000000000000000, 1.000000000000000000 ) ) ;
#646 = PRESENTATION_STYLE_ASSIGNMENT (( #575 ) ) ;
#647 = EDGE_CURVE ( 'NONE', #99, #949, #26, .T. ) ;
#648 = PLANE ( 'NONE',  #811 ) ;
#649 = ORIENTED_EDGE ( 'NONE', *, *, #178, .F. ) ;
#650 = DIRECTION ( 'NONE',  ( 1.000000000000000000, 6.370914164328969630E-17, 0.000000000000000000 ) ) ;
#651 = ORIENTED_EDGE ( 'NONE', *, *, #178, .T. ) ;
#652 = LINE ( 'NONE', #345, #250 ) ;
#653 = VECTOR ( 'NONE', #77, 39.37007874015748143 ) ;
#654 = LENGTH_MEASURE_WITH_UNIT ( LENGTH_MEASURE( 0.02539999999999999897 ), #87 );
#655 = CIRCLE ( 'NONE', #315, 0.02000000000000000042 ) ;
#656 = LENGTH_MEASURE_WITH_UNIT ( LENGTH_MEASURE( 0.02539999999999999897 ), #500 );
#657 = ADVANCED_FACE ( 'NONE', ( #90 ), #828, .F. ) ;
#658 = ORIENTED_EDGE ( 'NONE', *, *, #1015, .F. ) ;
#659 = PLANE ( 'NONE',  #736 ) ;
#660 = SHAPE_DEFINITION_REPRESENTATION ( #993, #885 ) ;
#661 = VERTEX_POINT ( 'NONE', #431 ) ;
#662 = DIRECTION ( 'NONE',  ( -1.000000000000000000, 0.000000000000000000, 0.000000000000000000 ) ) ;
#663 = UNCERTAINTY_MEASURE_WITH_UNIT (LENGTH_MEASURE( 1.000000000000000082E-05 ), #391, 'distance_accuracy_value', 'NONE');
#664 = FILL_AREA_STYLE ('',( #732 ) ) ;
#665 = ORIENTED_EDGE ( 'NONE', *, *, #237, .F. ) ;
#666 = FACE_OUTER_BOUND ( 'NONE', #815, .T. ) ;
#667 = CLOSED_SHELL ( 'NONE', ( #498, #79, #657, #894, #507, #311, #829, #721, #392 ) ) ;
#668 = SURFACE_SIDE_STYLE ('',( #348 ) ) ;
#669 = COLOUR_RGB ( '',1.000000000000000000, 0.000000000000000000, 0.000000000000000000 ) ;
#670 = AXIS2_PLACEMENT_3D ( 'NONE', #290, #364, #926 ) ;
#671 = ORIENTED_EDGE ( 'NONE', *, *, #83, .F. ) ;
#672 = LINE ( 'NONE', #104, #199 ) ;
#673 = PRODUCT_DEFINITION ( 'UNKNOWN', '', #428, #337 ) ;
#674 = FACE_OUTER_BOUND ( 'NONE', #509, .T. ) ;
#675 = EDGE_CURVE ( 'NONE', #501, #1020, #652, .T. ) ;
#676 = LINE ( 'NONE', #271, #30 ) ;
#677 = CARTESIAN_POINT ( 'NONE',  ( -1.018000000000000238, 0.04000000000000000777, -0.01000000000000000194 ) ) ;
#678 = DIRECTION ( 'NONE',  ( 1.000000000000000000, 0.000000000000000000, -0.000000000000000000 ) ) ;
#679 = FILL_AREA_STYLE ('',( #1004 ) ) ;
#680 = FACE_OUTER_BOUND ( 'NONE', #632, .T. ) ;
#681 = CARTESIAN_POINT ( 'NONE',  ( 0.08250000000000003164, 0.000000000000000000, 0.000000000000000000 ) ) ;
#682 = DIMENSIONAL_EXPONENTS ( 1.000000000000000000, 0.000000000000000000, 0.000000000000000000, 0.000000000000000000, 0.000000000000000000, 0.000000000000000000, 0.000000000000000000 ) ;
#683 = ORIENTED_EDGE ( 'NONE', *, *, #857, .T. ) ;
#684 = CYLINDRICAL_SURFACE ( 'NONE', #907, 0.06700000000000003175 ) ;
#685 = COLOUR_RGB ( '',1.000000000000000000, 0.000000000000000000, 0.000000000000000000 ) ;
#686 = VECTOR ( 'NONE', #864, 39.37007874015748143 ) ;
#687 = COLOUR_RGB ( '',1.000000000000000000, 0.000000000000000000, 0.000000000000000000 ) ;
#688 = ORIENTED_EDGE ( 'NONE', *, *, #906, .F. ) ;
#689 = PLANE ( 'NONE',  #838 ) ;
#690 = STYLED_ITEM ( 'NONE', ( #15 ), #800 ) ;
#691 = ORIENTED_EDGE ( 'NONE', *, *, #268, .F. ) ;
#692 = SURFACE_SIDE_STYLE ('',( #461 ) ) ;
#693 = VERTEX_POINT ( 'NONE', #593 ) ;
#694 = DIMENSIONAL_EXPONENTS ( 1.000000000000000000, 0.000000000000000000, 0.000000000000000000, 0.000000000000000000, 0.000000000000000000, 0.000000000000000000, 0.000000000000000000 ) ;
#695 = CARTESIAN_POINT ( 'NONE',  ( -1.018000000000000238, 0.04000000000000000777, -0.01000000000000000194 ) ) ;
#696 = CARTESIAN_POINT ( 'NONE',  ( -0.01999999997658336720, -0.04000000000000000777, 0.01000000000000000194 ) ) ;
#697 = EDGE_CURVE ( 'NONE', #964, #25, #354, .T. ) ;
#698 = VECTOR ( 'NONE', #951, 39.37007874015748143 ) ;
#699 = LINE ( 'NONE', #225, #653 ) ;
#700 = CARTESIAN_POINT ( 'NONE',  ( 0.000000000000000000, 0.01999999981909022367, 0.04700000000000001399 ) ) ;
#701 = VERTEX_POINT ( 'NONE', #574 ) ;
#702 = CIRCLE ( 'NONE', #992, 0.03550000000000001071 ) ;
#703 =( NAMED_UNIT ( * ) PLANE_ANGLE_UNIT ( ) SI_UNIT ( $, .RADIAN. ) );
#704 =( GEOMETRIC_REPRESENTATION_CONTEXT ( 3 ) GLOBAL_UNCERTAINTY_ASSIGNED_CONTEXT ( ( #219 ) ) GLOBAL_UNIT_ASSIGNED_CONTEXT ( ( #492, #412, #228 ) ) REPRESENTATION_CONTEXT ( 'NONE', 'WORKASPACE' ) );
#705 = DIRECTION ( 'NONE',  ( 1.274182832865793926E-16, -1.000000000000000000, 0.000000000000000000 ) ) ;
#706 = AXIS2_PLACEMENT_3D ( 'NONE', #572, #973, #581 ) ;
#707 = DIRECTION ( 'NONE',  ( 0.000000000000000000, -1.000000000000000000, -1.067128122525102604E-16 ) ) ;
#708 = DIRECTION ( 'NONE',  ( 0.000000000000000000, -0.000000000000000000, 1.000000000000000000 ) ) ;
#709 = ORIENTED_EDGE ( 'NONE', *, *, #609, .F. ) ;
#710 = FACE_OUTER_BOUND ( 'NONE', #1045, .T. ) ;
#711 = DIRECTION ( 'NONE',  ( 0.000000000000000000, 0.000000000000000000, 1.000000000000000000 ) ) ;
#712 = DIRECTION ( 'NONE',  ( 6.370914164328969630E-17, -1.000000000000000000, 0.000000000000000000 ) ) ;
#713 = ORIENTED_EDGE ( 'NONE', *, *, #361, .F. ) ;
#714 = CARTESIAN_POINT ( 'NONE',  ( 0.000000000000000000, -0.04000000004891431787, 0.01000000000000000368 ) ) ;
#715 = FILL_AREA_STYLE_COLOUR ( '', #451 ) ;
#716 =( CONVERSION_BASED_UNIT ( 'INCH', #1029 ) LENGTH_UNIT ( ) NAMED_UNIT ( #208 ) );
#717 = STYLED_ITEM ( 'NONE', ( #646 ), #349 ) ;
#718 = CARTESIAN_POINT ( 'NONE',  ( -1.018000000000000238, 0.02000000000000000389, 0.01000000000000000194 ) ) ;
#719 = ORIENTED_EDGE ( 'NONE', *, *, #483, .T. ) ;
#720 = DIRECTION ( 'NONE',  ( -1.000000000000000000, -2.404795769070653637E-16, -0.000000000000000000 ) ) ;
#721 = ADVANCED_FACE ( 'NONE', ( #666 ), #510, .T. ) ;
#722 = EDGE_CURVE ( 'NONE', #840, #99, #990, .T. ) ;
#723 = SURFACE_SIDE_STYLE ('',( #156 ) ) ;
#724 = AXIS2_PLACEMENT_3D ( 'NONE', #742, #327, #270 ) ;
#725 = DIRECTION ( 'NONE',  ( 1.000000000000000000, 6.370914164328969630E-17, 0.000000000000000000 ) ) ;
#726 = ORIENTED_EDGE ( 'NONE', *, *, #565, .T. ) ;
#727 =( NAMED_UNIT ( * ) SI_UNIT ( $, .STERADIAN. ) SOLID_ANGLE_UNIT ( ) );
#728 = FACE_OUTER_BOUND ( 'NONE', #528, .T. ) ;
#729 = PLANE ( 'NONE',  #127 ) ;
#730 = DIRECTION ( 'NONE',  ( 1.707404996040164166E-15, -1.000000000000000000, -1.067128122525102604E-16 ) ) ;
#731 = ORIENTED_EDGE ( 'NONE', *, *, #98, .T. ) ;
#732 = FILL_AREA_STYLE_COLOUR ( '', #669 ) ;
#733 = VECTOR ( 'NONE', #776, 39.37007874015748143 ) ;
#734 = ORIENTED_EDGE ( 'NONE', *, *, #598, .T. ) ;
#735 = DIRECTION ( 'NONE',  ( 0.000000000000000000, 0.000000000000000000, 1.000000000000000000 ) ) ;
#736 = AXIS2_PLACEMENT_3D ( 'NONE', #911, #85, #899 ) ;
#737 = UNCERTAINTY_MEASURE_WITH_UNIT (LENGTH_MEASURE( 1.000000000000000082E-05 ), #891, 'distance_accuracy_value', 'NONE');
#738 = MECHANICAL_DESIGN_GEOMETRIC_PRESENTATION_REPRESENTATION (  '', ( #754 ), #112 ) ;
#739 = VECTOR ( 'NONE', #43, 39.37007874015748143 ) ;
#740 = EDGE_CURVE ( 'NONE', #323, #200, #266, .T. ) ;
#741 = ORIENTED_EDGE ( 'NONE', *, *, #82, .F. ) ;
#742 = CARTESIAN_POINT ( 'NONE',  ( 0.000000000000000000, -0.02000000000000000389, -0.01000000000000000194 ) ) ;
#743 = PRESENTATION_STYLE_ASSIGNMENT (( #184 ) ) ;
#744 = ORIENTED_EDGE ( 'NONE', *, *, #818, .F. ) ;
#745 = DIRECTION ( 'NONE',  ( 1.000000000000000000, 0.000000000000000000, 0.000000000000000000 ) ) ;
#746 = CARTESIAN_POINT ( 'NONE',  ( -0.02000000000000000389, -0.04000000000000000777, 0.01000000000000000194 ) ) ;
#747 = PRESENTATION_STYLE_ASSIGNMENT (( #192 ) ) ;
#748 = VERTEX_POINT ( 'NONE', #591 ) ;
#749 = DIRECTION ( 'NONE',  ( -1.000000000000000000, -2.051031073074241675E-10, -1.134431494755134740E-24 ) ) ;
#750 = CYLINDRICAL_SURFACE ( 'NONE', #851, 0.06700000000000003175 ) ;
#751 = CIRCLE ( 'NONE', #404, 0.06700000000000003175 ) ;
#752 = EDGE_CURVE ( 'NONE', #14, #1005, #251, .T. ) ;
#753 = EDGE_CURVE ( 'NONE', #852, #179, #81, .T. ) ;
#754 = STYLED_ITEM ( 'NONE', ( #846 ), #532 ) ;
#755 = CARTESIAN_POINT ( 'NONE',  ( 0.000000000000000000, 0.06225065400000002330, 0.04700000000000001399 ) ) ;
#756 = VECTOR ( 'NONE', #1030, 39.37007874015748143 ) ;
#757 = APPLICATION_CONTEXT ( 'automotive_design' ) ;
#758 = DIRECTION ( 'NONE',  ( -0.000000000000000000, -1.000000000000000000, 0.000000000000000000 ) ) ;
#759 = PRESENTATION_STYLE_ASSIGNMENT (( #375 ) ) ;
#760 = ORIENTED_EDGE ( 'NONE', *, *, #465, .F. ) ;
#761 = FILL_AREA_STYLE ('',( #111 ) ) ;
#762 = DIRECTION ( 'NONE',  ( 1.000000000000000000, -0.000000000000000000, 0.000000000000000000 ) ) ;
#763 = CARTESIAN_POINT ( 'NONE',  ( 0.000000000000000000, -0.04000000009782862798, 0.04700000000000001399 ) ) ;
#764 = EDGE_LOOP ( 'NONE', ( #744, #340, #665, #415 ) ) ;
#765 = DIRECTION ( 'NONE',  ( 0.000000000000000000, 0.000000000000000000, 1.000000000000000000 ) ) ;
#766 = DIMENSIONAL_EXPONENTS ( 1.000000000000000000, 0.000000000000000000, 0.000000000000000000, 0.000000000000000000, 0.000000000000000000, 0.000000000000000000, 0.000000000000000000 ) ;
#767 = EDGE_LOOP ( 'NONE', ( #658, #479, #110, #141, #790 ) ) ;
#768 = ORIENTED_EDGE ( 'NONE', *, *, #675, .F. ) ;
#769 = SURFACE_STYLE_FILL_AREA ( #369 ) ;
#770 = VECTOR ( 'NONE', #471, 39.37007874015748143 ) ;
#771 = CARTESIAN_POINT ( 'NONE',  ( -1.059000000000000163, -0.04000000000000000777, 0.01000000000000000194 ) ) ;
#772 = CARTESIAN_POINT ( 'NONE',  ( -1.059000000000000163, -0.06000000000000001860, 0.01000000000000000194 ) ) ;
#773 = VECTOR ( 'NONE', #288, 39.37007874015748143 ) ;
#774 = AXIS2_PLACEMENT_3D ( 'NONE', #427, #735, #180 ) ;
#775 = EDGE_LOOP ( 'NONE', ( #878, #607, #688, #497, #382 ) ) ;
#776 = DIRECTION ( 'NONE',  ( -1.000000000000000000, -0.000000000000000000, 0.000000000000000000 ) ) ;
#777 = LINE ( 'NONE', #1011, #739 ) ;
#778 = CARTESIAN_POINT ( 'NONE',  ( 0.08250000000000004552, -2.097679698490973680E-16, 0.000000000000000000 ) ) ;
#779 = CARTESIAN_POINT ( 'NONE',  ( 0.000000000000000000, -0.04774934577262666263, -0.04700000000000001399 ) ) ;
#780 = CARTESIAN_POINT ( 'NONE',  ( -0.02000000000102550302, 0.06000000000000001860, -0.01000000000650000040 ) ) ;
#781 = EDGE_CURVE ( 'NONE', #179, #323, #924, .T. ) ;
#782 = ORIENTED_EDGE ( 'NONE', *, *, #1015, .T. ) ;
#783 = SURFACE_SIDE_STYLE ('',( #769 ) ) ;
#784 = EDGE_CURVE ( 'NONE', #968, #1035, #893, .T. ) ;
#785 = CARTESIAN_POINT ( 'NONE',  ( -0.01999999971333331697, 0.04000000000000000777, -0.01000000000000000194 ) ) ;
#786 = CLOSED_SHELL ( 'NONE', ( #432, #295, #123, #895, #859, #159, #612, #847, #909 ) ) ;
#787 = VECTOR ( 'NONE', #617, 39.37007874015748143 ) ;
#788 = FACE_OUTER_BOUND ( 'NONE', #269, .T. ) ;
#789 = LINE ( 'NONE', #877, #756 ) ;
#790 = ORIENTED_EDGE ( 'NONE', *, *, #332, .F. ) ;
#791 = CARTESIAN_POINT ( 'NONE',  ( 1.521034916601344195E-18, -0.04774934565893999144, 0.04700000000000001399 ) ) ;
#792 = VECTOR ( 'NONE', #597, 39.37007874015748143 ) ;
#793 = CARTESIAN_POINT ( 'NONE',  ( 1.280553747030123384E-17, -0.06700000000000003175, 0.000000000000000000 ) ) ;
#794 = DIRECTION ( 'NONE',  ( 0.000000000000000000, -1.000000000000000000, 0.000000000000000000 ) ) ;
#795 = ORIENTED_EDGE ( 'NONE', *, *, #419, .T. ) ;
#796 = DIRECTION ( 'NONE',  ( -1.000000000000000000, -2.051031073074241675E-10, -1.134431494755134740E-24 ) ) ;
#797 = FILL_AREA_STYLE ('',( #405 ) ) ;
#798 = CARTESIAN_POINT ( 'NONE',  ( 0.000000000000000000, -0.04000000004891431787, -0.01000000000866666829 ) ) ;
#799 = CARTESIAN_POINT ( 'NONE',  ( 0.000000000000000000, 0.03999999990417885815, 0.01000000000433333425 ) ) ;
#800 = ADVANCED_FACE ( 'NONE', ( #189 ), #517, .T. ) ;
#801 = ADVANCED_FACE ( 'NONE', ( #1014 ), #689, .F. ) ;
#802 = ORIENTED_EDGE ( 'NONE', *, *, #53, .T. ) ;
#803 = LENGTH_MEASURE_WITH_UNIT ( LENGTH_MEASURE( 0.02539999999999999897 ), #390 );
#804 = PLANE ( 'NONE',  #836 ) ;
#805 = UNCERTAINTY_MEASURE_WITH_UNIT (LENGTH_MEASURE( 1.000000000000000082E-05 ), #449, 'distance_accuracy_value', 'NONE');
#806 =( NAMED_UNIT ( * ) SI_UNIT ( $, .STERADIAN. ) SOLID_ANGLE_UNIT ( ) );
#807 =( GEOMETRIC_REPRESENTATION_CONTEXT ( 3 ) GLOBAL_UNCERTAINTY_ASSIGNED_CONTEXT ( ( #663 ) ) GLOBAL_UNIT_ASSIGNED_CONTEXT ( ( #391, #321, #482 ) ) REPRESENTATION_CONTEXT ( 'NONE', 'WORKASPACE' ) );
#808 = LINE ( 'NONE', #718, #279 ) ;
#809 = ORIENTED_EDGE ( 'NONE', *, *, #237, .T. ) ;
#810 = SURFACE_SIDE_STYLE ('',( #950 ) ) ;
#811 = AXIS2_PLACEMENT_3D ( 'NONE', #68, #958, #490 ) ;
#812 = EDGE_LOOP ( 'NONE', ( #928, #691, #491, #604 ) ) ;
#813 = DIRECTION ( 'NONE',  ( 0.000000000000000000, 1.000000000000000000, 0.000000000000000000 ) ) ;
#814 = DIRECTION ( 'NONE',  ( 0.000000000000000000, -1.000000000000000000, -0.000000000000000000 ) ) ;
#815 = EDGE_LOOP ( 'NONE', ( #211, #234, #469, #576 ) ) ;
#816 = CARTESIAN_POINT ( 'NONE',  ( -1.018000000000000238, 0.04000000000000000777, 0.01000000000000000194 ) ) ;
#817 = CARTESIAN_POINT ( 'NONE',  ( -1.059000000000000163, -0.04000000000000000777, -0.01000000000000000194 ) ) ;
#818 = EDGE_CURVE ( 'NONE', #949, #430, #777, .T. ) ;
#819 = FILL_AREA_STYLE ('',( #563 ) ) ;
#820 = ORIENTED_EDGE ( 'NONE', *, *, #124, .T. ) ;
#821 = FILL_AREA_STYLE_COLOUR ( '', #687 ) ;
#822 = AXIS2_PLACEMENT_3D ( 'NONE', #335, #662, #825 ) ;
#823 = CIRCLE ( 'NONE', #995, 0.02000000000000000389 ) ;
#824 = VERTEX_POINT ( 'NONE', #696 ) ;
#825 = DIRECTION ( 'NONE',  ( 0.000000000000000000, 0.000000000000000000, 1.000000000000000000 ) ) ;
#826 = CARTESIAN_POINT ( 'NONE',  ( 0.000000000000000000, -0.04774934600000001195, 0.04700000000000001399 ) ) ;
#827 = ORIENTED_EDGE ( 'NONE', *, *, #562, .F. ) ;
#828 = PLANE ( 'NONE',  #774 ) ;
#829 = ADVANCED_FACE ( 'NONE', ( #360 ), #1002, .T. ) ;
#830 = PRESENTATION_STYLE_ASSIGNMENT (( #594 ) ) ;
#831 = DIRECTION ( 'NONE',  ( 1.000000000000000000, -3.846898886275404473E-10, -1.026310790874275793E-16 ) ) ;
#832 = ORIENTED_EDGE ( 'NONE', *, *, #613, .F. ) ;
#833 = DIRECTION ( 'NONE',  ( 0.000000000000000000, -1.000000000000000000, -0.000000000000000000 ) ) ;
#834 =( CONVERSION_BASED_UNIT ( 'INCH', #999 ) LENGTH_UNIT ( ) NAMED_UNIT ( #694 ) );
#835 = MECHANICAL_DESIGN_GEOMETRIC_PRESENTATION_REPRESENTATION (  '', ( #291 ), #230 ) ;
#836 = AXIS2_PLACEMENT_3D ( 'NONE', #75, #888, #240 ) ;
#837 = DIRECTION ( 'NONE',  ( 0.000000000000000000, 0.000000000000000000, 1.000000000000000000 ) ) ;
#838 = AXIS2_PLACEMENT_3D ( 'NONE', #853, #615, #126 ) ;
#839 = DIRECTION ( 'NONE',  ( -1.000000000000000000, -0.000000000000000000, 0.000000000000000000 ) ) ;
#840 = VERTEX_POINT ( 'NONE', #117 ) ;
#841 = EDGE_CURVE ( 'NONE', #1020, #573, #537, .T. ) ;
#842 = DIMENSIONAL_EXPONENTS ( 1.000000000000000000, 0.000000000000000000, 0.000000000000000000, 0.000000000000000000, 0.000000000000000000, 0.000000000000000000, 0.000000000000000000 ) ;
#843 = ORIENTED_EDGE ( 'NONE', *, *, #647, .T. ) ;
#844 =( NAMED_UNIT ( * ) PLANE_ANGLE_UNIT ( ) SI_UNIT ( $, .RADIAN. ) );
#845 = ORIENTED_EDGE ( 'NONE', *, *, #974, .F. ) ;
#846 = PRESENTATION_STYLE_ASSIGNMENT (( #527 ) ) ;
#847 = ADVANCED_FACE ( 'NONE', ( #1006 ), #1019, .T. ) ;
#848 = EDGE_CURVE ( 'NONE', #573, #430, #620, .T. ) ;
#849 = VERTEX_POINT ( 'NONE', #772 ) ;
#850 = MECHANICAL_DESIGN_GEOMETRIC_PRESENTATION_REPRESENTATION (  '', ( #1041 ), #455 ) ;
#851 = AXIS2_PLACEMENT_3D ( 'NONE', #584, #579, #23 ) ;
#852 = VERTEX_POINT ( 'NONE', #121 ) ;
#853 = CARTESIAN_POINT ( 'NONE',  ( 0.000000000000000000, 0.06225065400000002330, 0.04700000000000001399 ) ) ;
#854 =( NAMED_UNIT ( * ) PLANE_ANGLE_UNIT ( ) SI_UNIT ( $, .RADIAN. ) );
#855 = SURFACE_STYLE_FILL_AREA ( #679 ) ;
#856 = DIRECTION ( 'NONE',  ( 0.000000000000000000, -1.000000000000000000, 0.000000000000000000 ) ) ;
#857 = EDGE_CURVE ( 'NONE', #120, #840, #808, .T. ) ;
#858 = VERTEX_POINT ( 'NONE', #799 ) ;
#859 = ADVANCED_FACE ( 'NONE', ( #1043 ), #409, .T. ) ;
#860 = CARTESIAN_POINT ( 'NONE',  ( 0.000000000000000000, -0.04774934577262666263, 0.04700000000000001399 ) ) ;
#861 = DIRECTION ( 'NONE',  ( 0.000000000000000000, 0.000000000000000000, 1.000000000000000000 ) ) ;
#862 = ORIENTED_EDGE ( 'NONE', *, *, #347, .F. ) ;
#863 = CARTESIAN_POINT ( 'NONE',  ( 0.000000000000000000, 0.06225065400000002330, -0.04700000000000001399 ) ) ;
#864 = DIRECTION ( 'NONE',  ( -1.000000000000000000, 0.000000000000000000, -0.000000000000000000 ) ) ;
#865 = VECTOR ( 'NONE', #477, 39.37007874015748143 ) ;
#866 =( GEOMETRIC_REPRESENTATION_CONTEXT ( 3 ) GLOBAL_UNCERTAINTY_ASSIGNED_CONTEXT ( ( #177 ) ) GLOBAL_UNIT_ASSIGNED_CONTEXT ( ( #996, #520, #212 ) ) REPRESENTATION_CONTEXT ( 'NONE', 'WORKASPACE' ) );
#867 = DIRECTION ( 'NONE',  ( 0.000000000000000000, -5.335640612625513020E-17, 1.000000000000000000 ) ) ;
#868 = ORIENTED_EDGE ( 'NONE', *, *, #841, .F. ) ;
#869 = AXIS2_PLACEMENT_3D ( 'NONE', #317, #322, #638 ) ;
#870 = DIRECTION ( 'NONE',  ( 1.000000000000000000, -0.000000000000000000, 0.000000000000000000 ) ) ;
#871 = CARTESIAN_POINT ( 'NONE',  ( -0.02000000000000000389, -0.04000000000000000777, -0.01000000000000000194 ) ) ;
#872 = CARTESIAN_POINT ( 'NONE',  ( -0.01999999980888892206, 0.02000000000000000389, 0.01000000000000000194 ) ) ;
#873 = ORIENTED_EDGE ( 'NONE', *, *, #697, .T. ) ;
#874 = LINE ( 'NONE', #1036, #942 ) ;
#875 = CARTESIAN_POINT ( 'NONE',  ( -1.059000000000000163, -0.06000000000000001860, 0.01000000000000000194 ) ) ;
#876 = CARTESIAN_POINT ( 'NONE',  ( 0.000000000000000000, -0.02000000000000000389, -0.01000000001733333289 ) ) ;
#877 = CARTESIAN_POINT ( 'NONE',  ( -0.02000000000000000389, -0.02000000000000000389, -0.01000000000000000194 ) ) ;
#878 = ORIENTED_EDGE ( 'NONE', *, *, #781, .T. ) ;
#879 = LINE ( 'NONE', #863, #495 ) ;
#880 = CARTESIAN_POINT ( 'NONE',  ( 8.537024980200822558E-18, -4.013675923527252075E-18, 0.000000000000000000 ) ) ;
#881 = UNCERTAINTY_MEASURE_WITH_UNIT (LENGTH_MEASURE( 1.000000000000000082E-05 ), #716, 'distance_accuracy_value', 'NONE');
#882 =( NAMED_UNIT ( * ) SI_UNIT ( $, .STERADIAN. ) SOLID_ANGLE_UNIT ( ) );
#883 = VECTOR ( 'NONE', #762, 39.37007874015748143 ) ;
#884 = DIRECTION ( 'NONE',  ( 0.000000000000000000, 1.000000000000000000, 0.000000000000000000 ) ) ;
#885 = ADVANCED_BREP_SHAPE_REPRESENTATION ( '1.8RD', ( #145, #488, #481, #706 ), #36 ) ;
#886 = ORIENTED_EDGE ( 'NONE', *, *, #183, .F. ) ;
#887 = DIRECTION ( 'NONE',  ( 4.809591538141307275E-16, -1.000000000000000000, 0.000000000000000000 ) ) ;
#888 = DIRECTION ( 'NONE',  ( -1.000000000000000000, 0.000000000000000000, -0.000000000000000000 ) ) ;
#889 = VECTOR ( 'NONE', #388, 39.37007874015748143 ) ;
#890 = DIRECTION ( 'NONE',  ( -0.000000000000000000, -0.000000000000000000, -1.000000000000000000 ) ) ;
#891 =( CONVERSION_BASED_UNIT ( 'INCH', #257 ) LENGTH_UNIT ( ) NAMED_UNIT ( #196 ) );
#892 = VERTEX_POINT ( 'NONE', #307 ) ;
#893 = LINE ( 'NONE', #998, #476 ) ;
#894 = ADVANCED_FACE ( 'NONE', ( #158 ), #631, .T. ) ;
#895 = ADVANCED_FACE ( 'NONE', ( #297 ), #648, .T. ) ;
#896 = SURFACE_STYLE_FILL_AREA ( #761 ) ;
#897 = ORIENTED_EDGE ( 'NONE', *, *, #697, .F. ) ;
#898 =( LENGTH_UNIT ( ) NAMED_UNIT ( * ) SI_UNIT ( $, .METRE. ) );
#899 = DIRECTION ( 'NONE',  ( -0.000000000000000000, 0.000000000000000000, 1.000000000000000000 ) ) ;
#900 = APPLICATION_PROTOCOL_DEFINITION ( 'draft international standard', 'automotive_design', 1998, #280 ) ;
#901 = VECTOR ( 'NONE', #42, 39.37007874015748143 ) ;
#902 = VECTOR ( 'NONE', #630, 39.37007874015748143 ) ;
#903 = VERTEX_POINT ( 'NONE', #149 ) ;
#904 = PLANE ( 'NONE',  #724 ) ;
#905 = LINE ( 'NONE', #342, #1044 ) ;
#906 = EDGE_CURVE ( 'NONE', #154, #200, #386, .T. ) ;
#907 = AXIS2_PLACEMENT_3D ( 'NONE', #155, #235, #556 ) ;
#908 = COLOUR_RGB ( '',1.000000000000000000, 0.000000000000000000, 0.000000000000000000 ) ;
#909 = ADVANCED_FACE ( 'NONE', ( #238 ), #153, .F. ) ;
#910 = PRESENTATION_LAYER_ASSIGNMENT (  '', '', ( #979 ) ) ;
#911 = CARTESIAN_POINT ( 'NONE',  ( 4.268512490100411279E-18, -0.04774934565893999144, -0.04700000000000001399 ) ) ;
#912 =( LENGTH_UNIT ( ) NAMED_UNIT ( * ) SI_UNIT ( $, .METRE. ) );
#913 = ORIENTED_EDGE ( 'NONE', *, *, #402, .F. ) ;
#914 = CARTESIAN_POINT ( 'NONE',  ( 0.08250000000000004552, 4.105960309725337483E-33, 0.000000000000000000 ) ) ;
#915 = CARTESIAN_POINT ( 'NONE',  ( 0.000000000000000000, -0.04774934600000001195, -0.04700000000000001399 ) ) ;
#916 = ORIENTED_EDGE ( 'NONE', *, *, #1017, .T. ) ;
#917 = DIRECTION ( 'NONE',  ( -0.000000000000000000, -1.000000000000000000, -0.000000000000000000 ) ) ;
#918 = DIRECTION ( 'NONE',  ( -0.000000000000000000, -1.000000000000000000, -0.000000000000000000 ) ) ;
#919 = LINE ( 'NONE', #1000, #787 ) ;
#920 = LINE ( 'NONE', #194, #529 ) ;
#921 =( NAMED_UNIT ( * ) SI_UNIT ( $, .STERADIAN. ) SOLID_ANGLE_UNIT ( ) );
#922 = PRESENTATION_LAYER_ASSIGNMENT (  '', '', ( #291 ) ) ;
#923 = PRESENTATION_LAYER_ASSIGNMENT (  '', '', ( #442 ) ) ;
#924 = CIRCLE ( 'NONE', #426, 0.03550000000000001071 ) ;
#925 = ORIENTED_EDGE ( 'NONE', *, *, #530, .F. ) ;
#926 = DIRECTION ( 'NONE',  ( 0.000000000000000000, 0.000000000000000000, 1.000000000000000000 ) ) ;
#927 = DIMENSIONAL_EXPONENTS ( 1.000000000000000000, 0.000000000000000000, 0.000000000000000000, 0.000000000000000000, 0.000000000000000000, 0.000000000000000000, 0.000000000000000000 ) ;
#928 = ORIENTED_EDGE ( 'NONE', *, *, #784, .F. ) ;
#929 = SURFACE_STYLE_FILL_AREA ( #277 ) ;
#930 = EDGE_CURVE ( 'NONE', #80, #1001, #318, .T. ) ;
#931 = ORIENTED_EDGE ( 'NONE', *, *, #146, .F. ) ;
#932 = FILL_AREA_STYLE ('',( #608 ) ) ;
#933 = VERTEX_POINT ( 'NONE', #473 ) ;
#934 =( LENGTH_UNIT ( ) NAMED_UNIT ( * ) SI_UNIT ( $, .METRE. ) );
#935 = DIMENSIONAL_EXPONENTS ( 1.000000000000000000, 0.000000000000000000, 0.000000000000000000, 0.000000000000000000, 0.000000000000000000, 0.000000000000000000, 0.000000000000000000 ) ;
#936 = ORIENTED_EDGE ( 'NONE', *, *, #633, .T. ) ;
#937 = DIRECTION ( 'NONE',  ( 0.000000000000000000, -1.000000000000000000, 0.000000000000000000 ) ) ;
#938 = VERTEX_POINT ( 'NONE', #554 ) ;
#939 = DIRECTION ( 'NONE',  ( -1.000000000000000000, -0.000000000000000000, 0.000000000000000000 ) ) ;
#940 = VECTOR ( 'NONE', #413, 39.37007874015748143 ) ;
#941 =( LENGTH_UNIT ( ) NAMED_UNIT ( * ) SI_UNIT ( $, .METRE. ) );
#942 = VECTOR ( 'NONE', #561, 39.37007874015748143 ) ;
#943 = AXIS2_PLACEMENT_3D ( 'NONE', #232, #861, #485 ) ;
#944 = ORIENTED_EDGE ( 'NONE', *, *, #53, .F. ) ;
#945 = PRESENTATION_STYLE_ASSIGNMENT (( #198 ) ) ;
#946 = DIRECTION ( 'NONE',  ( -1.000000000000000000, -6.370914164328969630E-17, -0.000000000000000000 ) ) ;
#947 = DIRECTION ( 'NONE',  ( -1.000000000000000000, -2.404795769070653637E-16, -0.000000000000000000 ) ) ;
#948 = CARTESIAN_POINT ( 'NONE',  ( -1.018000000000000238, 0.04000000000000000777, -0.01000000000000000194 ) ) ;
#949 = VERTEX_POINT ( 'NONE', #872 ) ;
#950 = SURFACE_STYLE_FILL_AREA ( #320 ) ;
#951 = DIRECTION ( 'NONE',  ( -0.000000000000000000, -1.000000000000000000, -0.000000000000000000 ) ) ;
#952 = LINE ( 'NONE', #700, #294 ) ;
#953 = EDGE_CURVE ( 'NONE', #903, #1005, #35, .T. ) ;
#954 = EDGE_LOOP ( 'NONE', ( #103, #931, #227, #389 ) ) ;
#955 = CARTESIAN_POINT ( 'NONE',  ( 0.000000000000000000, 0.06225065400000003718, 0.04700000000000001399 ) ) ;
#956 = PRESENTATION_LAYER_ASSIGNMENT (  '', '', ( #229 ) ) ;
#957 = AXIS2_PLACEMENT_3D ( 'NONE', #626, #947, #62 ) ;
#958 = DIRECTION ( 'NONE',  ( -1.000000000000000000, 0.000000000000000000, 0.000000000000000000 ) ) ;
#959 = ORIENTED_EDGE ( 'NONE', *, *, #542, .T. ) ;
#960 = MECHANICAL_DESIGN_GEOMETRIC_PRESENTATION_REPRESENTATION (  '', ( #16 ), #147 ) ;
#961 = CARTESIAN_POINT ( 'NONE',  ( 0.08250000000000003164, 0.000000000000000000, 0.000000000000000000 ) ) ;
#962 = PLANE ( 'NONE',  #546 ) ;
#963 = DIRECTION ( 'NONE',  ( 0.000000000000000000, -1.000000000000000000, -1.067128122525102604E-16 ) ) ;
#964 = VERTEX_POINT ( 'NONE', #2 ) ;
#965 = SURFACE_STYLE_USAGE ( .BOTH. , #723 ) ;
#966 =( CONVERSION_BASED_UNIT ( 'INCH', #971 ) LENGTH_UNIT ( ) NAMED_UNIT ( #264 ) );
#967 = LINE ( 'NONE', #63, #889 ) ;
#968 = VERTEX_POINT ( 'NONE', #58 ) ;
#969 = SURFACE_STYLE_USAGE ( .BOTH. , #810 ) ;
#970 = DIRECTION ( 'NONE',  ( 0.000000000000000000, -0.000000000000000000, -1.000000000000000000 ) ) ;
#971 = LENGTH_MEASURE_WITH_UNIT ( LENGTH_MEASURE( 0.02539999999999999897 ), #166 );
#972 =( GEOMETRIC_REPRESENTATION_CONTEXT ( 3 ) GLOBAL_UNCERTAINTY_ASSIGNED_CONTEXT ( ( #881 ) ) GLOBAL_UNIT_ASSIGNED_CONTEXT ( ( #716, #484, #806 ) ) REPRESENTATION_CONTEXT ( 'NONE', 'WORKASPACE' ) );
#973 = DIRECTION ( 'NONE',  ( 0.000000000000000000, 0.000000000000000000, 1.000000000000000000 ) ) ;
#974 = EDGE_CURVE ( 'NONE', #448, #21, #789, .T. ) ;
#975 = COLOUR_RGB ( '',1.000000000000000000, 0.000000000000000000, 0.000000000000000000 ) ;
#976 = ORIENTED_EDGE ( 'NONE', *, *, #578, .T. ) ;
#977 = CARTESIAN_POINT ( 'NONE',  ( 0.08250000000000000389, 0.03550000000000001071, 4.347496136973105044E-18 ) ) ;
#978 = LINE ( 'NONE', #1048, #109 ) ;
#979 = STYLED_ITEM ( 'NONE', ( #222 ), #599 ) ;
#980 = ORIENTED_EDGE ( 'NONE', *, *, #223, .T. ) ;
#981 = CARTESIAN_POINT ( 'NONE',  ( -0.02000000000205099521, 0.06000000000000001860, -0.01000000000000000194 ) ) ;
#982 =( CONVERSION_BASED_UNIT ( 'INCH', #336 ) LENGTH_UNIT ( ) NAMED_UNIT ( #458 ) );
#983 = CARTESIAN_POINT ( 'NONE',  ( -1.059000000000000163, -0.04000000000000000777, -0.01000000000000000194 ) ) ;
#984 = VERTEX_POINT ( 'NONE', #564 ) ;
#985 = LINE ( 'NONE', #100, #443 ) ;
#986 = FILL_AREA_STYLE ('',( #821 ) ) ;
#987 = EDGE_CURVE ( 'NONE', #661, #80, #967, .T. ) ;
#988 = FACE_OUTER_BOUND ( 'NONE', #812, .T. ) ;
#989 = ORIENTED_EDGE ( 'NONE', *, *, #722, .T. ) ;
#990 = LINE ( 'NONE', #816, #267 ) ;
#991 = STYLED_ITEM ( 'NONE', ( #325 ), #433 ) ;
#992 = AXIS2_PLACEMENT_3D ( 'NONE', #475, #796, #1032 ) ;
#993 = PRODUCT_DEFINITION_SHAPE ( 'NONE', 'NONE',  #673 ) ;
#994 = COLOUR_RGB ( '',1.000000000000000000, 0.000000000000000000, 0.000000000000000000 ) ;
#995 = AXIS2_PLACEMENT_3D ( 'NONE', #394, #414, #730 ) ;
#996 =( CONVERSION_BASED_UNIT ( 'INCH', #544 ) LENGTH_UNIT ( ) NAMED_UNIT ( #842 ) );
#997 = EDGE_LOOP ( 'NONE', ( #809, #440, #74, #1008 ) ) ;
#998 = CARTESIAN_POINT ( 'NONE',  ( 0.06300000000000002820, -0.04774934600000001195, 0.04700000000000001399 ) ) ;
#999 = LENGTH_MEASURE_WITH_UNIT ( LENGTH_MEASURE( 0.02539999999999999897 ), #39 );
#1000 = CARTESIAN_POINT ( 'NONE',  ( 0.000000000000000000, -0.06000000000000001860, 0.01000000000000000194 ) ) ;
#1001 = VERTEX_POINT ( 'NONE', #468 ) ;
#1002 = PLANE ( 'NONE',  #50 ) ;
#1003 = SURFACE_SIDE_STYLE ('',( #896 ) ) ;
#1004 = FILL_AREA_STYLE_COLOUR ( '', #403 ) ;
#1005 = VERTEX_POINT ( 'NONE', #780 ) ;
#1006 = FACE_OUTER_BOUND ( 'NONE', #954, .T. ) ;
#1007 = VECTOR ( 'NONE', #393, 39.37007874015748143 ) ;
#1008 = ORIENTED_EDGE ( 'NONE', *, *, #841, .T. ) ;
#1009 = MECHANICAL_DESIGN_GEOMETRIC_PRESENTATION_REPRESENTATION (  '', ( #979 ), #704 ) ;
#1010 = ORIENTED_EDGE ( 'NONE', *, *, #930, .T. ) ;
#1011 = CARTESIAN_POINT ( 'NONE',  ( -0.01999999971333338289, 0.02000000000000000389, 0.01000000000000000194 ) ) ;
#1012 = DIRECTION ( 'NONE',  ( 1.000000000000000000, 0.000000000000000000, -0.000000000000000000 ) ) ;
#1013 = ORIENTED_EDGE ( 'NONE', *, *, #565, .F. ) ;
#1014 = FACE_OUTER_BOUND ( 'NONE', #125, .T. ) ;
#1015 = EDGE_CURVE ( 'NONE', #693, #661, #214, .T. ) ;
#1016 = EDGE_CURVE ( 'NONE', #892, #748, #952, .T. ) ;
#1017 = EDGE_CURVE ( 'NONE', #964, #849, #1024, .T. ) ;
#1018 = DIRECTION ( 'NONE',  ( 0.000000000000000000, -5.335640612625513020E-17, 1.000000000000000000 ) ) ;
#1019 = PLANE ( 'NONE',  #670 ) ;
#1020 = VERTEX_POINT ( 'NONE', #948 ) ;
#1021 = LINE ( 'NONE', #384, #698 ) ;
#1022 = UNCERTAINTY_MEASURE_WITH_UNIT (LENGTH_MEASURE( 1.000000000000000082E-05 ), #966, 'distance_accuracy_value', 'NONE');
#1023 = DIRECTION ( 'NONE',  ( 1.000000000000000000, 0.000000000000000000, -0.000000000000000000 ) ) ;
#1024 = LINE ( 'NONE', #226, #19 ) ;
#1025 = PRESENTATION_LAYER_ASSIGNMENT (  '', '', ( #690 ) ) ;
#1026 = EDGE_LOOP ( 'NONE', ( #600, #726, #651, #543, #3 ) ) ;
#1027 = FACE_OUTER_BOUND ( 'NONE', #512, .T. ) ;
#1028 = LINE ( 'NONE', #300, #902 ) ;
#1029 = LENGTH_MEASURE_WITH_UNIT ( LENGTH_MEASURE( 0.02539999999999999897 ), #301 );
#1030 = DIRECTION ( 'NONE',  ( -0.000000000000000000, -0.000000000000000000, -1.000000000000000000 ) ) ;
#1031 = ORIENTED_EDGE ( 'NONE', *, *, #27, .T. ) ;
#1032 = DIRECTION ( 'NONE',  ( 0.000000000000000000, 6.011989422676633650E-15, -1.000000000000000000 ) ) ;
#1033 = SURFACE_SIDE_STYLE ('',( #57 ) ) ;
#1034 = DIRECTION ( 'NONE',  ( 1.274182832865793926E-16, -1.000000000000000000, 0.000000000000000000 ) ) ;
#1035 = VERTEX_POINT ( 'NONE', #220 ) ;
#1036 = CARTESIAN_POINT ( 'NONE',  ( 0.06300000000000002820, 0.06225065400000002330, 0.04700000000000001399 ) ) ;
#1037 = EDGE_CURVE ( 'NONE', #25, #136, #606, .T. ) ;
#1038 = EDGE_CURVE ( 'NONE', #14, #858, #823, .T. ) ;
#1039 = FACE_OUTER_BOUND ( 'NONE', #31, .T. ) ;
#1040 = PRESENTATION_LAYER_ASSIGNMENT (  '', '', ( #717 ) ) ;
#1041 = STYLED_ITEM ( 'NONE', ( #830 ), #459 ) ;
#1042 = DIRECTION ( 'NONE',  ( 1.000000000000000000, 0.000000000000000000, -0.000000000000000000 ) ) ;
#1043 = FACE_OUTER_BOUND ( 'NONE', #454, .T. ) ;
#1044 = VECTOR ( 'NONE', #918, 39.37007874015748143 ) ;
#1045 = EDGE_LOOP ( 'NONE', ( #845, #450, #589, #209 ) ) ;
#1046 = VECTOR ( 'NONE', #833, 39.37007874015748143 ) ;
#1047 = CARTESIAN_POINT ( 'NONE',  ( -0.02000000000000000389, -0.06000000000000001166, -0.01000000000000000194 ) ) ;
#1048 = CARTESIAN_POINT ( 'NONE',  ( -1.059000000000000163, -0.06000000000000001860, -0.01000000000000000194 ) ) ;
ENDSEC;
END-ISO-10303-21;
